<mxfile host="Electron" agent="Mozilla/5.0 (Windows NT 10.0; Win64; x64) AppleWebKit/537.36 (KHTML, like Gecko) draw.io/26.2.2 Chrome/134.0.6998.178 Electron/35.1.2 Safari/537.36" version="26.2.2">
  <diagram name="Page-1" id="Akk8z2RaruNdp0wHSC6X">
    <mxGraphModel dx="4760" dy="2963" grid="1" gridSize="10" guides="1" tooltips="1" connect="1" arrows="1" fold="1" page="1" pageScale="1" pageWidth="827" pageHeight="1169" math="0" shadow="0">
      <root>
        <mxCell id="0" />
        <mxCell id="1" parent="0" />
        <mxCell id="VDvmv1JEjOlwoXjDc8ls-2" value="Departments" style="rounded=0;whiteSpace=wrap;html=1;fontSize=22;" parent="1" vertex="1">
          <mxGeometry x="1006.4054054054053" y="474.00000000000006" width="201.08108108108104" height="82.23529411764707" as="geometry" />
        </mxCell>
        <mxCell id="VDvmv1JEjOlwoXjDc8ls-3" value="DEP_ID" style="ellipse;whiteSpace=wrap;html=1;fontSize=22;" parent="1" vertex="1">
          <mxGeometry x="900.0045945945946" y="350.64294117647063" width="201.08108108108104" height="82.23529411764707" as="geometry" />
        </mxCell>
        <mxCell id="VDvmv1JEjOlwoXjDc8ls-4" value="Name" style="ellipse;whiteSpace=wrap;html=1;fontSize=22;" parent="1" vertex="1">
          <mxGeometry x="1157.216216216216" y="364.3529411764706" width="184.3243243243243" height="82.23529411764707" as="geometry" />
        </mxCell>
        <mxCell id="VDvmv1JEjOlwoXjDc8ls-5" value="" style="endArrow=none;html=1;rounded=0;exitX=0.5;exitY=1;exitDx=0;exitDy=0;entryX=0;entryY=0;entryDx=0;entryDy=0;fontSize=22;" parent="1" source="VDvmv1JEjOlwoXjDc8ls-3" target="VDvmv1JEjOlwoXjDc8ls-2" edge="1">
          <mxGeometry width="50" height="50" relative="1" as="geometry">
            <mxPoint x="1173.972972972973" y="789.2352941176472" as="sourcePoint" />
            <mxPoint x="1257.7567567567567" y="720.7058823529412" as="targetPoint" />
          </mxGeometry>
        </mxCell>
        <mxCell id="VDvmv1JEjOlwoXjDc8ls-6" value="" style="endArrow=none;html=1;rounded=0;exitX=0.5;exitY=1;exitDx=0;exitDy=0;entryX=1;entryY=0;entryDx=0;entryDy=0;fontSize=22;" parent="1" source="VDvmv1JEjOlwoXjDc8ls-4" target="VDvmv1JEjOlwoXjDc8ls-2" edge="1">
          <mxGeometry width="50" height="50" relative="1" as="geometry">
            <mxPoint x="991.3243243243242" y="431.5117647058824" as="sourcePoint" />
            <mxPoint x="1023.162162162162" y="487.7058823529412" as="targetPoint" />
          </mxGeometry>
        </mxCell>
        <mxCell id="VDvmv1JEjOlwoXjDc8ls-7" value="Book_exchange" style="rounded=0;whiteSpace=wrap;html=1;fontSize=22;" parent="1" vertex="1">
          <mxGeometry x="352.8918918918919" y="597.3529411764706" width="201.08108108108104" height="82.23529411764707" as="geometry" />
        </mxCell>
        <mxCell id="VDvmv1JEjOlwoXjDc8ls-8" value="DEP_ID (FK)" style="ellipse;whiteSpace=wrap;html=1;fontSize=22;" parent="1" vertex="1">
          <mxGeometry x="118.29729729729729" y="707" width="167.56756756756755" height="82.23529411764707" as="geometry" />
        </mxCell>
        <mxCell id="VDvmv1JEjOlwoXjDc8ls-9" value="&lt;u&gt;Book_ID&lt;/u&gt;" style="ellipse;whiteSpace=wrap;html=1;fontSize=22;" parent="1" vertex="1">
          <mxGeometry x="101.54054054054052" y="501.41176470588243" width="184.3243243243243" height="82.23529411764707" as="geometry" />
        </mxCell>
        <mxCell id="VDvmv1JEjOlwoXjDc8ls-10" value="Book_name" style="ellipse;whiteSpace=wrap;html=1;fontSize=22;" parent="1" vertex="1">
          <mxGeometry x="101.54054054054052" y="597.3529411764706" width="184.3243243243243" height="82.23529411764707" as="geometry" />
        </mxCell>
        <mxCell id="VDvmv1JEjOlwoXjDc8ls-11" value="" style="endArrow=none;html=1;rounded=0;exitX=1;exitY=0.5;exitDx=0;exitDy=0;fontSize=22;" parent="1" source="VDvmv1JEjOlwoXjDc8ls-9" edge="1">
          <mxGeometry width="50" height="50" relative="1" as="geometry">
            <mxPoint x="336.1351351351351" y="665.8823529411766" as="sourcePoint" />
            <mxPoint x="352.8918918918919" y="597.3529411764706" as="targetPoint" />
          </mxGeometry>
        </mxCell>
        <mxCell id="VDvmv1JEjOlwoXjDc8ls-12" value="" style="endArrow=none;html=1;rounded=0;exitX=1;exitY=0.5;exitDx=0;exitDy=0;entryX=0.005;entryY=0.335;entryDx=0;entryDy=0;entryPerimeter=0;fontSize=22;" parent="1" source="VDvmv1JEjOlwoXjDc8ls-10" target="VDvmv1JEjOlwoXjDc8ls-7" edge="1">
          <mxGeometry width="50" height="50" relative="1" as="geometry">
            <mxPoint x="302.6216216216216" y="542.529411764706" as="sourcePoint" />
            <mxPoint x="369.6486486486486" y="611.0588235294118" as="targetPoint" />
          </mxGeometry>
        </mxCell>
        <mxCell id="VDvmv1JEjOlwoXjDc8ls-13" value="" style="endArrow=none;html=1;rounded=0;exitX=1.008;exitY=0.442;exitDx=0;exitDy=0;exitPerimeter=0;entryX=0;entryY=1;entryDx=0;entryDy=0;fontSize=22;" parent="1" source="VDvmv1JEjOlwoXjDc8ls-8" target="VDvmv1JEjOlwoXjDc8ls-7" edge="1">
          <mxGeometry width="50" height="50" relative="1" as="geometry">
            <mxPoint x="319.37837837837833" y="556.2352941176471" as="sourcePoint" />
            <mxPoint x="386.4054054054054" y="624.764705882353" as="targetPoint" />
          </mxGeometry>
        </mxCell>
        <mxCell id="VDvmv1JEjOlwoXjDc8ls-14" value="provides exchange books" style="rhombus;whiteSpace=wrap;html=1;fontSize=22;" parent="1" vertex="1">
          <mxGeometry x="721.5405405405404" y="569.9411764705883" width="201.08108108108104" height="150.76470588235296" as="geometry" />
        </mxCell>
        <mxCell id="VDvmv1JEjOlwoXjDc8ls-15" value="" style="endArrow=none;html=1;rounded=0;exitX=1;exitY=0.5;exitDx=0;exitDy=0;entryX=0;entryY=0.5;entryDx=0;entryDy=0;fontSize=22;" parent="1" source="VDvmv1JEjOlwoXjDc8ls-7" target="VDvmv1JEjOlwoXjDc8ls-14" edge="1">
          <mxGeometry width="50" height="50" relative="1" as="geometry">
            <mxPoint x="654.5135135135134" y="652.1764705882354" as="sourcePoint" />
            <mxPoint x="738.2972972972972" y="583.6470588235294" as="targetPoint" />
          </mxGeometry>
        </mxCell>
        <mxCell id="VDvmv1JEjOlwoXjDc8ls-16" value="&lt;font&gt;m&lt;/font&gt;" style="edgeLabel;html=1;align=center;verticalAlign=middle;resizable=0;points=[];fontSize=22;" parent="VDvmv1JEjOlwoXjDc8ls-15" vertex="1" connectable="0">
          <mxGeometry x="-0.3361" y="-2" relative="1" as="geometry">
            <mxPoint x="1" as="offset" />
          </mxGeometry>
        </mxCell>
        <mxCell id="VDvmv1JEjOlwoXjDc8ls-17" value="" style="endArrow=none;html=1;rounded=0;exitX=1;exitY=0.5;exitDx=0;exitDy=0;entryX=0;entryY=1;entryDx=0;entryDy=0;fontSize=22;" parent="1" source="VDvmv1JEjOlwoXjDc8ls-14" target="VDvmv1JEjOlwoXjDc8ls-2" edge="1">
          <mxGeometry width="50" height="50" relative="1" as="geometry">
            <mxPoint x="922.6216216216214" y="611.0588235294118" as="sourcePoint" />
            <mxPoint x="1006.4054054054053" y="542.529411764706" as="targetPoint" />
          </mxGeometry>
        </mxCell>
        <mxCell id="VDvmv1JEjOlwoXjDc8ls-18" value="&lt;font&gt;1&lt;/font&gt;" style="edgeLabel;html=1;align=center;verticalAlign=middle;resizable=0;points=[];fontSize=22;" parent="VDvmv1JEjOlwoXjDc8ls-17" vertex="1" connectable="0">
          <mxGeometry x="0.4213" y="-2" relative="1" as="geometry">
            <mxPoint as="offset" />
          </mxGeometry>
        </mxCell>
        <mxCell id="VDvmv1JEjOlwoXjDc8ls-19" value="User" style="rounded=0;whiteSpace=wrap;html=1;fontSize=22;" parent="1" vertex="1">
          <mxGeometry x="1023.162162162162" y="940.0000000000001" width="201.08108108108104" height="82.23529411764707" as="geometry" />
        </mxCell>
        <mxCell id="VDvmv1JEjOlwoXjDc8ls-20" value="First_Name" style="ellipse;whiteSpace=wrap;html=1;fontSize=22;" parent="1" vertex="1">
          <mxGeometry x="855.5945945945945" y="830.3529411764706" width="150.8108108108108" height="82.23529411764707" as="geometry" />
        </mxCell>
        <mxCell id="VDvmv1JEjOlwoXjDc8ls-21" value="&lt;u&gt;User_ID&lt;/u&gt;" style="ellipse;whiteSpace=wrap;html=1;fontSize=22;" parent="1" vertex="1">
          <mxGeometry x="688.027027027027" y="830.3529411764706" width="150.8108108108108" height="82.23529411764707" as="geometry" />
        </mxCell>
        <mxCell id="VDvmv1JEjOlwoXjDc8ls-22" value="E-mail" style="ellipse;whiteSpace=wrap;html=1;fontSize=22;" parent="1" vertex="1">
          <mxGeometry x="1224.2432432432431" y="830.3529411764706" width="150.8108108108108" height="82.23529411764707" as="geometry" />
        </mxCell>
        <mxCell id="VDvmv1JEjOlwoXjDc8ls-23" value="Last_Name" style="ellipse;whiteSpace=wrap;html=1;fontSize=22;" parent="1" vertex="1">
          <mxGeometry x="1014.7805405405404" y="830.3529411764706" width="150.8108108108108" height="82.23529411764707" as="geometry" />
        </mxCell>
        <mxCell id="VDvmv1JEjOlwoXjDc8ls-24" value="Phone_Num" style="ellipse;whiteSpace=wrap;html=1;fontSize=22;" parent="1" vertex="1">
          <mxGeometry x="1391.8108108108106" y="857.7647058823529" width="150.8108108108108" height="82.23529411764707" as="geometry" />
        </mxCell>
        <mxCell id="VDvmv1JEjOlwoXjDc8ls-25" value="Role" style="ellipse;whiteSpace=wrap;html=1;fontSize=22;" parent="1" vertex="1">
          <mxGeometry x="1375.054054054054" y="1022.2352941176472" width="150.8108108108108" height="82.23529411764707" as="geometry" />
        </mxCell>
        <mxCell id="VDvmv1JEjOlwoXjDc8ls-26" value="Created_at" style="ellipse;whiteSpace=wrap;html=1;fontSize=22;" parent="1" vertex="1">
          <mxGeometry x="730.0008108108109" y="960.0000000000001" width="150.8108108108108" height="82.23529411764707" as="geometry" />
        </mxCell>
        <mxCell id="VDvmv1JEjOlwoXjDc8ls-27" value="Password" style="ellipse;whiteSpace=wrap;html=1;fontSize=22;" parent="1" vertex="1">
          <mxGeometry x="1308.0270270270269" y="940.0000000000001" width="150.8108108108108" height="82.23529411764707" as="geometry" />
        </mxCell>
        <mxCell id="VDvmv1JEjOlwoXjDc8ls-28" value="" style="endArrow=none;html=1;rounded=0;exitX=1;exitY=1;exitDx=0;exitDy=0;entryX=-0.003;entryY=0.166;entryDx=0;entryDy=0;entryPerimeter=0;fontSize=22;" parent="1" source="VDvmv1JEjOlwoXjDc8ls-21" target="VDvmv1JEjOlwoXjDc8ls-19" edge="1">
          <mxGeometry width="50" height="50" relative="1" as="geometry">
            <mxPoint x="989.6486486486485" y="967.4117647058824" as="sourcePoint" />
            <mxPoint x="1073.4324324324323" y="898.8823529411766" as="targetPoint" />
          </mxGeometry>
        </mxCell>
        <mxCell id="VDvmv1JEjOlwoXjDc8ls-29" value="" style="endArrow=none;html=1;rounded=0;exitX=0.5;exitY=1;exitDx=0;exitDy=0;entryX=0;entryY=0;entryDx=0;entryDy=0;fontSize=22;" parent="1" source="VDvmv1JEjOlwoXjDc8ls-20" target="VDvmv1JEjOlwoXjDc8ls-19" edge="1">
          <mxGeometry width="50" height="50" relative="1" as="geometry">
            <mxPoint x="833.8108108108108" y="878.3235294117649" as="sourcePoint" />
            <mxPoint x="1023.162162162162" y="953.7058823529412" as="targetPoint" />
          </mxGeometry>
        </mxCell>
        <mxCell id="VDvmv1JEjOlwoXjDc8ls-30" value="" style="endArrow=none;html=1;rounded=0;exitX=1;exitY=0.5;exitDx=0;exitDy=0;entryX=0;entryY=0.25;entryDx=0;entryDy=0;fontSize=22;" parent="1" source="VDvmv1JEjOlwoXjDc8ls-26" target="VDvmv1JEjOlwoXjDc8ls-19" edge="1">
          <mxGeometry width="50" height="50" relative="1" as="geometry">
            <mxPoint x="850.5675675675675" y="892.029411764706" as="sourcePoint" />
            <mxPoint x="1049.972972972973" y="978.3764705882354" as="targetPoint" />
          </mxGeometry>
        </mxCell>
        <mxCell id="VDvmv1JEjOlwoXjDc8ls-31" value="" style="endArrow=none;html=1;rounded=0;exitX=0.5;exitY=1;exitDx=0;exitDy=0;entryX=0.419;entryY=0.001;entryDx=0;entryDy=0;entryPerimeter=0;fontSize=22;" parent="1" source="VDvmv1JEjOlwoXjDc8ls-23" target="VDvmv1JEjOlwoXjDc8ls-19" edge="1">
          <mxGeometry width="50" height="50" relative="1" as="geometry">
            <mxPoint x="867.3243243243242" y="905.7352941176472" as="sourcePoint" />
            <mxPoint x="1066.7297297297296" y="992.0823529411765" as="targetPoint" />
          </mxGeometry>
        </mxCell>
        <mxCell id="VDvmv1JEjOlwoXjDc8ls-32" value="" style="endArrow=none;html=1;rounded=0;entryX=0.858;entryY=-0.003;entryDx=0;entryDy=0;entryPerimeter=0;fontSize=22;" parent="1" source="VDvmv1JEjOlwoXjDc8ls-22" target="VDvmv1JEjOlwoXjDc8ls-19" edge="1">
          <mxGeometry width="50" height="50" relative="1" as="geometry">
            <mxPoint x="1123.7027027027025" y="885.1764705882354" as="sourcePoint" />
            <mxPoint x="1123.7027027027025" y="953.7058823529412" as="targetPoint" />
          </mxGeometry>
        </mxCell>
        <mxCell id="VDvmv1JEjOlwoXjDc8ls-33" value="" style="endArrow=none;html=1;rounded=0;exitX=0.052;exitY=0.732;exitDx=0;exitDy=0;entryX=1;entryY=0;entryDx=0;entryDy=0;exitPerimeter=0;fontSize=22;" parent="1" source="VDvmv1JEjOlwoXjDc8ls-24" target="VDvmv1JEjOlwoXjDc8ls-19" edge="1">
          <mxGeometry width="50" height="50" relative="1" as="geometry">
            <mxPoint x="1140.4594594594594" y="898.8823529411766" as="sourcePoint" />
            <mxPoint x="1140.4594594594594" y="967.4117647058824" as="targetPoint" />
          </mxGeometry>
        </mxCell>
        <mxCell id="VDvmv1JEjOlwoXjDc8ls-34" value="" style="endArrow=none;html=1;rounded=0;exitX=0;exitY=0.5;exitDx=0;exitDy=0;entryX=1;entryY=0.25;entryDx=0;entryDy=0;fontSize=22;" parent="1" source="VDvmv1JEjOlwoXjDc8ls-27" target="VDvmv1JEjOlwoXjDc8ls-19" edge="1">
          <mxGeometry width="50" height="50" relative="1" as="geometry">
            <mxPoint x="1157.216216216216" y="912.5882352941178" as="sourcePoint" />
            <mxPoint x="1157.216216216216" y="981.1176470588235" as="targetPoint" />
          </mxGeometry>
        </mxCell>
        <mxCell id="VDvmv1JEjOlwoXjDc8ls-35" value="" style="endArrow=none;html=1;rounded=0;exitX=1;exitY=0.907;exitDx=0;exitDy=0;entryX=0;entryY=0.5;entryDx=0;entryDy=0;exitPerimeter=0;fontSize=22;" parent="1" source="VDvmv1JEjOlwoXjDc8ls-19" target="VDvmv1JEjOlwoXjDc8ls-25" edge="1">
          <mxGeometry width="50" height="50" relative="1" as="geometry">
            <mxPoint x="1173.972972972973" y="926.2941176470589" as="sourcePoint" />
            <mxPoint x="1173.972972972973" y="994.8235294117649" as="targetPoint" />
          </mxGeometry>
        </mxCell>
        <mxCell id="VDvmv1JEjOlwoXjDc8ls-36" value="Book_offer" style="rounded=0;whiteSpace=wrap;html=1;fontSize=22;" parent="1" vertex="1">
          <mxGeometry x="319.37837837837833" y="1200.4117647058824" width="201.08108108108104" height="82.23529411764707" as="geometry" />
        </mxCell>
        <mxCell id="VDvmv1JEjOlwoXjDc8ls-37" value="User_id&lt;div&gt;(FK)&lt;/div&gt;" style="ellipse;whiteSpace=wrap;html=1;fontSize=22;" parent="1" vertex="1">
          <mxGeometry x="1" y="1310.058823529412" width="167.56756756756755" height="82.23529411764707" as="geometry" />
        </mxCell>
        <mxCell id="VDvmv1JEjOlwoXjDc8ls-38" value="&lt;u&gt;Offer_ID&lt;/u&gt;" style="ellipse;whiteSpace=wrap;html=1;fontSize=22;" parent="1" vertex="1">
          <mxGeometry x="68.02702702702702" y="1104.4705882352941" width="184.3243243243243" height="82.23529411764707" as="geometry" />
        </mxCell>
        <mxCell id="VDvmv1JEjOlwoXjDc8ls-39" value="Book_iD (FK)" style="ellipse;whiteSpace=wrap;html=1;fontSize=22;" parent="1" vertex="1">
          <mxGeometry x="17.756756756756754" y="1200.4117647058824" width="184.3243243243243" height="82.23529411764707" as="geometry" />
        </mxCell>
        <mxCell id="VDvmv1JEjOlwoXjDc8ls-40" value="" style="endArrow=none;html=1;rounded=0;exitX=1;exitY=0.5;exitDx=0;exitDy=0;fontSize=22;" parent="1" source="VDvmv1JEjOlwoXjDc8ls-38" edge="1">
          <mxGeometry width="50" height="50" relative="1" as="geometry">
            <mxPoint x="302.6216216216216" y="1268.9411764705885" as="sourcePoint" />
            <mxPoint x="319.37837837837833" y="1200.4117647058824" as="targetPoint" />
          </mxGeometry>
        </mxCell>
        <mxCell id="VDvmv1JEjOlwoXjDc8ls-41" value="" style="endArrow=none;html=1;rounded=0;exitX=1;exitY=0.5;exitDx=0;exitDy=0;entryX=0.005;entryY=0.335;entryDx=0;entryDy=0;entryPerimeter=0;fontSize=22;" parent="1" source="VDvmv1JEjOlwoXjDc8ls-39" target="VDvmv1JEjOlwoXjDc8ls-36" edge="1">
          <mxGeometry width="50" height="50" relative="1" as="geometry">
            <mxPoint x="269.10810810810807" y="1145.5882352941178" as="sourcePoint" />
            <mxPoint x="336.1351351351351" y="1214.1176470588236" as="targetPoint" />
          </mxGeometry>
        </mxCell>
        <mxCell id="VDvmv1JEjOlwoXjDc8ls-42" value="" style="endArrow=none;html=1;rounded=0;exitX=0.999;exitY=0.467;exitDx=0;exitDy=0;exitPerimeter=0;entryX=0;entryY=1;entryDx=0;entryDy=0;fontSize=22;" parent="1" source="VDvmv1JEjOlwoXjDc8ls-37" target="VDvmv1JEjOlwoXjDc8ls-36" edge="1">
          <mxGeometry width="50" height="50" relative="1" as="geometry">
            <mxPoint x="285.86486486486484" y="1159.2941176470588" as="sourcePoint" />
            <mxPoint x="352.8918918918919" y="1227.8235294117649" as="targetPoint" />
          </mxGeometry>
        </mxCell>
        <mxCell id="VDvmv1JEjOlwoXjDc8ls-43" value="Details" style="ellipse;whiteSpace=wrap;html=1;fontSize=22;" parent="1" vertex="1">
          <mxGeometry x="604.2432432432432" y="1310.058823529412" width="167.56756756756755" height="82.23529411764707" as="geometry" />
        </mxCell>
        <mxCell id="VDvmv1JEjOlwoXjDc8ls-44" value="Timestamp" style="ellipse;whiteSpace=wrap;html=1;fontSize=22;" parent="1" vertex="1">
          <mxGeometry x="587.4864864864865" y="1200.4117647058824" width="167.56756756756755" height="82.23529411764707" as="geometry" />
        </mxCell>
        <mxCell id="VDvmv1JEjOlwoXjDc8ls-45" value="" style="endArrow=none;html=1;rounded=0;exitX=0;exitY=0.5;exitDx=0;exitDy=0;entryX=1;entryY=0.25;entryDx=0;entryDy=0;fontSize=22;" parent="1" source="VDvmv1JEjOlwoXjDc8ls-44" target="VDvmv1JEjOlwoXjDc8ls-36" edge="1">
          <mxGeometry width="50" height="50" relative="1" as="geometry">
            <mxPoint x="269.10810810810807" y="1138.735294117647" as="sourcePoint" />
            <mxPoint x="336.1351351351351" y="1214.1176470588236" as="targetPoint" />
          </mxGeometry>
        </mxCell>
        <mxCell id="VDvmv1JEjOlwoXjDc8ls-46" value="" style="endArrow=none;html=1;rounded=0;exitX=0;exitY=0.333;exitDx=0;exitDy=0;entryX=1;entryY=1;entryDx=0;entryDy=0;exitPerimeter=0;fontSize=22;" parent="1" source="VDvmv1JEjOlwoXjDc8ls-43" target="VDvmv1JEjOlwoXjDc8ls-36" edge="1">
          <mxGeometry width="50" height="50" relative="1" as="geometry">
            <mxPoint x="604.2432432432432" y="1234.6764705882354" as="sourcePoint" />
            <mxPoint x="537.2162162162161" y="1234.6764705882354" as="targetPoint" />
          </mxGeometry>
        </mxCell>
        <mxCell id="VDvmv1JEjOlwoXjDc8ls-47" value="Makes" style="rhombus;whiteSpace=wrap;html=1;fontSize=22;" parent="1" vertex="1">
          <mxGeometry x="688.027027027027" y="1063.3529411764707" width="134.05405405405403" height="109.64705882352942" as="geometry" />
        </mxCell>
        <mxCell id="VDvmv1JEjOlwoXjDc8ls-48" value="Has&lt;div&gt;book&amp;nbsp;&lt;/div&gt;&lt;div&gt;offers&lt;/div&gt;" style="rhombus;whiteSpace=wrap;html=1;fontSize=22;" parent="1" vertex="1">
          <mxGeometry x="386.4054054054054" y="898.8823529411766" width="134.05405405405403" height="109.64705882352942" as="geometry" />
        </mxCell>
        <mxCell id="VDvmv1JEjOlwoXjDc8ls-49" value="" style="endArrow=none;html=1;rounded=0;entryX=0.48;entryY=0.991;entryDx=0;entryDy=0;entryPerimeter=0;exitX=0.5;exitY=0;exitDx=0;exitDy=0;fontSize=22;" parent="1" source="VDvmv1JEjOlwoXjDc8ls-48" target="VDvmv1JEjOlwoXjDc8ls-7" edge="1">
          <mxGeometry width="50" height="50" relative="1" as="geometry">
            <mxPoint x="520.4594594594595" y="912.5882352941178" as="sourcePoint" />
            <mxPoint x="604.2432432432432" y="844.0588235294118" as="targetPoint" />
          </mxGeometry>
        </mxCell>
        <mxCell id="VDvmv1JEjOlwoXjDc8ls-50" value="&lt;font&gt;1&lt;/font&gt;" style="edgeLabel;html=1;align=center;verticalAlign=middle;resizable=0;points=[];fontSize=22;" parent="VDvmv1JEjOlwoXjDc8ls-49" vertex="1" connectable="0">
          <mxGeometry x="0.6441" y="2" relative="1" as="geometry">
            <mxPoint as="offset" />
          </mxGeometry>
        </mxCell>
        <mxCell id="VDvmv1JEjOlwoXjDc8ls-51" value="" style="endArrow=none;html=1;rounded=0;entryX=0.641;entryY=-0.002;entryDx=0;entryDy=0;entryPerimeter=0;fontSize=22;" parent="1" target="VDvmv1JEjOlwoXjDc8ls-36" edge="1">
          <mxGeometry width="50" height="50" relative="1" as="geometry">
            <mxPoint x="453.4324324324324" y="1008.529411764706" as="sourcePoint" />
            <mxPoint x="466.83783783783775" y="691.9235294117648" as="targetPoint" />
          </mxGeometry>
        </mxCell>
        <mxCell id="VDvmv1JEjOlwoXjDc8ls-52" value="&lt;font&gt;M&lt;/font&gt;" style="edgeLabel;html=1;align=center;verticalAlign=middle;resizable=0;points=[];fontSize=22;" parent="VDvmv1JEjOlwoXjDc8ls-51" vertex="1" connectable="0">
          <mxGeometry x="0.2091" y="1" relative="1" as="geometry">
            <mxPoint y="1" as="offset" />
          </mxGeometry>
        </mxCell>
        <mxCell id="VDvmv1JEjOlwoXjDc8ls-53" value="" style="endArrow=none;html=1;rounded=0;entryX=1;entryY=0;entryDx=0;entryDy=0;exitX=0;exitY=0.5;exitDx=0;exitDy=0;fontSize=22;" parent="1" source="VDvmv1JEjOlwoXjDc8ls-47" target="VDvmv1JEjOlwoXjDc8ls-36" edge="1">
          <mxGeometry width="50" height="50" relative="1" as="geometry">
            <mxPoint x="470.18918918918916" y="1022.2352941176472" as="sourcePoint" />
            <mxPoint x="465.1621621621621" y="1214.1176470588236" as="targetPoint" />
          </mxGeometry>
        </mxCell>
        <mxCell id="VDvmv1JEjOlwoXjDc8ls-54" value="&lt;font&gt;M&lt;/font&gt;" style="edgeLabel;html=1;align=center;verticalAlign=middle;resizable=0;points=[];fontSize=22;" parent="VDvmv1JEjOlwoXjDc8ls-53" vertex="1" connectable="0">
          <mxGeometry x="0.5046" y="-4" relative="1" as="geometry">
            <mxPoint as="offset" />
          </mxGeometry>
        </mxCell>
        <mxCell id="VDvmv1JEjOlwoXjDc8ls-55" value="" style="endArrow=none;html=1;rounded=0;entryX=-0.009;entryY=0.678;entryDx=0;entryDy=0;exitX=1;exitY=0.5;exitDx=0;exitDy=0;entryPerimeter=0;fontSize=22;" parent="1" source="VDvmv1JEjOlwoXjDc8ls-47" target="VDvmv1JEjOlwoXjDc8ls-19" edge="1">
          <mxGeometry width="50" height="50" relative="1" as="geometry">
            <mxPoint x="805.3243243243242" y="1090.7647058823532" as="sourcePoint" />
            <mxPoint x="889.108108108108" y="1022.2352941176472" as="targetPoint" />
          </mxGeometry>
        </mxCell>
        <mxCell id="VDvmv1JEjOlwoXjDc8ls-56" value="&lt;font&gt;1&lt;/font&gt;" style="edgeLabel;html=1;align=center;verticalAlign=middle;resizable=0;points=[];fontSize=22;" parent="VDvmv1JEjOlwoXjDc8ls-55" vertex="1" connectable="0">
          <mxGeometry x="0.6397" y="2" relative="1" as="geometry">
            <mxPoint as="offset" />
          </mxGeometry>
        </mxCell>
        <mxCell id="VDvmv1JEjOlwoXjDc8ls-57" value="&lt;font&gt;Desired_Book_ID (FK)&lt;/font&gt;" style="ellipse;whiteSpace=wrap;html=1;fontSize=22;" parent="1" vertex="1">
          <mxGeometry x="537.2162162162161" y="1392.294117647059" width="184.3243243243243" height="82.23529411764707" as="geometry" />
        </mxCell>
        <mxCell id="VDvmv1JEjOlwoXjDc8ls-58" value="" style="endArrow=none;html=1;rounded=0;entryX=0;entryY=0.5;entryDx=0;entryDy=0;exitX=0.5;exitY=1;exitDx=0;exitDy=0;fontSize=22;" parent="1" source="VDvmv1JEjOlwoXjDc8ls-36" target="VDvmv1JEjOlwoXjDc8ls-57" edge="1">
          <mxGeometry width="50" height="50" relative="1" as="geometry">
            <mxPoint x="235.59459459459458" y="1255.235294117647" as="sourcePoint" />
            <mxPoint x="319.37837837837833" y="1186.7058823529412" as="targetPoint" />
          </mxGeometry>
        </mxCell>
        <mxCell id="VDvmv1JEjOlwoXjDc8ls-59" value="Book_request" style="rounded=0;whiteSpace=wrap;html=1;fontSize=22;" parent="1" vertex="1">
          <mxGeometry x="319.37837837837833" y="1762.3529411764707" width="201.08108108108104" height="82.23529411764707" as="geometry" />
        </mxCell>
        <mxCell id="VDvmv1JEjOlwoXjDc8ls-60" value="Offer_id&lt;div&gt;(FK)&lt;/div&gt;" style="ellipse;whiteSpace=wrap;html=1;fontSize=22;" parent="1" vertex="1">
          <mxGeometry x="1" y="1734.9411764705885" width="167.56756756756755" height="82.23529411764707" as="geometry" />
        </mxCell>
        <mxCell id="VDvmv1JEjOlwoXjDc8ls-61" value="Timestamp" style="ellipse;whiteSpace=wrap;html=1;fontSize=22;" parent="1" vertex="1">
          <mxGeometry x="419.9189189189189" y="1926.8235294117649" width="167.56756756756755" height="82.23529411764707" as="geometry" />
        </mxCell>
        <mxCell id="VDvmv1JEjOlwoXjDc8ls-62" value="Status" style="ellipse;whiteSpace=wrap;html=1;fontSize=22;" parent="1" vertex="1">
          <mxGeometry x="202.08108108108104" y="1926.8235294117649" width="167.56756756756755" height="82.23529411764707" as="geometry" />
        </mxCell>
        <mxCell id="VDvmv1JEjOlwoXjDc8ls-63" value="Request_ID" style="ellipse;whiteSpace=wrap;html=1;fontSize=22;" parent="1" vertex="1">
          <mxGeometry x="1" y="1652.7058823529412" width="167.56756756756755" height="82.23529411764707" as="geometry" />
        </mxCell>
        <mxCell id="VDvmv1JEjOlwoXjDc8ls-64" value="Requester&lt;div&gt;id (FK)&lt;/div&gt;" style="ellipse;whiteSpace=wrap;html=1;fontSize=22;" parent="1" vertex="1">
          <mxGeometry x="1" y="1830.8823529411766" width="167.56756756756755" height="82.23529411764707" as="geometry" />
        </mxCell>
        <mxCell id="VDvmv1JEjOlwoXjDc8ls-65" value="" style="endArrow=none;html=1;rounded=0;exitX=1;exitY=0.5;exitDx=0;exitDy=0;entryX=0;entryY=0;entryDx=0;entryDy=0;fontSize=22;" parent="1" source="VDvmv1JEjOlwoXjDc8ls-63" target="VDvmv1JEjOlwoXjDc8ls-59" edge="1">
          <mxGeometry width="50" height="50" relative="1" as="geometry">
            <mxPoint x="235.59459459459458" y="1597.8823529411766" as="sourcePoint" />
            <mxPoint x="319.37837837837833" y="1529.3529411764707" as="targetPoint" />
          </mxGeometry>
        </mxCell>
        <mxCell id="VDvmv1JEjOlwoXjDc8ls-66" value="" style="endArrow=none;html=1;rounded=0;exitX=1;exitY=0.5;exitDx=0;exitDy=0;fontSize=22;" parent="1" source="VDvmv1JEjOlwoXjDc8ls-60" edge="1">
          <mxGeometry width="50" height="50" relative="1" as="geometry">
            <mxPoint x="185.3243243243243" y="1686.9705882352944" as="sourcePoint" />
            <mxPoint x="319.37837837837833" y="1776.058823529412" as="targetPoint" />
          </mxGeometry>
        </mxCell>
        <mxCell id="VDvmv1JEjOlwoXjDc8ls-67" value="" style="endArrow=none;html=1;rounded=0;exitX=1;exitY=0.5;exitDx=0;exitDy=0;entryX=-0.004;entryY=0.692;entryDx=0;entryDy=0;entryPerimeter=0;fontSize=22;" parent="1" source="VDvmv1JEjOlwoXjDc8ls-64" target="VDvmv1JEjOlwoXjDc8ls-59" edge="1">
          <mxGeometry width="50" height="50" relative="1" as="geometry">
            <mxPoint x="202.08108108108104" y="1700.6764705882356" as="sourcePoint" />
            <mxPoint x="352.8918918918919" y="1789.7647058823532" as="targetPoint" />
          </mxGeometry>
        </mxCell>
        <mxCell id="VDvmv1JEjOlwoXjDc8ls-68" value="" style="endArrow=none;html=1;rounded=0;exitX=0.547;exitY=0.022;exitDx=0;exitDy=0;entryX=0;entryY=1;entryDx=0;entryDy=0;exitPerimeter=0;fontSize=22;" parent="1" source="VDvmv1JEjOlwoXjDc8ls-62" target="VDvmv1JEjOlwoXjDc8ls-59" edge="1">
          <mxGeometry width="50" height="50" relative="1" as="geometry">
            <mxPoint x="218.83783783783778" y="1714.3823529411766" as="sourcePoint" />
            <mxPoint x="369.6486486486486" y="1803.4705882352944" as="targetPoint" />
          </mxGeometry>
        </mxCell>
        <mxCell id="VDvmv1JEjOlwoXjDc8ls-69" value="" style="endArrow=none;html=1;rounded=0;exitX=0.75;exitY=1;exitDx=0;exitDy=0;entryX=0.409;entryY=-0.027;entryDx=0;entryDy=0;entryPerimeter=0;fontSize=22;" parent="1" source="VDvmv1JEjOlwoXjDc8ls-59" target="VDvmv1JEjOlwoXjDc8ls-61" edge="1">
          <mxGeometry width="50" height="50" relative="1" as="geometry">
            <mxPoint x="235.59459459459458" y="1728.0882352941178" as="sourcePoint" />
            <mxPoint x="386.4054054054054" y="1817.1764705882356" as="targetPoint" />
          </mxGeometry>
        </mxCell>
        <mxCell id="VDvmv1JEjOlwoXjDc8ls-70" value="Is mady&lt;div&gt;by&lt;/div&gt;" style="rhombus;whiteSpace=wrap;html=1;fontSize=22;" parent="1" vertex="1">
          <mxGeometry x="800.2972972972972" y="1543.058823529412" width="134.05405405405403" height="109.64705882352942" as="geometry" />
        </mxCell>
        <mxCell id="VDvmv1JEjOlwoXjDc8ls-71" value="Receive" style="rhombus;whiteSpace=wrap;html=1;fontSize=22;" parent="1" vertex="1">
          <mxGeometry x="352.8918918918919" y="1501.9411764705885" width="134.05405405405403" height="109.64705882352942" as="geometry" />
        </mxCell>
        <mxCell id="VDvmv1JEjOlwoXjDc8ls-72" value="" style="endArrow=none;html=1;rounded=0;exitX=0.458;exitY=0.047;exitDx=0;exitDy=0;exitPerimeter=0;entryX=0.487;entryY=1.002;entryDx=0;entryDy=0;entryPerimeter=0;fontSize=22;" parent="1" edge="1">
          <mxGeometry width="50" height="50" relative="1" as="geometry">
            <mxPoint x="414.28864864864863" y="1506.930117647059" as="sourcePoint" />
            <mxPoint x="417.3048648648647" y="1282.6470588235297" as="targetPoint" />
            <Array as="points" />
          </mxGeometry>
        </mxCell>
        <mxCell id="VDvmv1JEjOlwoXjDc8ls-73" value="&lt;font&gt;1&lt;/font&gt;" style="edgeLabel;html=1;align=center;verticalAlign=middle;resizable=0;points=[];fontSize=22;" parent="VDvmv1JEjOlwoXjDc8ls-72" vertex="1" connectable="0">
          <mxGeometry x="0.6596" y="-3" relative="1" as="geometry">
            <mxPoint x="-1" y="12" as="offset" />
          </mxGeometry>
        </mxCell>
        <mxCell id="VDvmv1JEjOlwoXjDc8ls-74" value="" style="endArrow=none;html=1;rounded=0;exitX=0.5;exitY=1;exitDx=0;exitDy=0;entryX=0.5;entryY=0;entryDx=0;entryDy=0;fontSize=22;" parent="1" source="VDvmv1JEjOlwoXjDc8ls-71" target="VDvmv1JEjOlwoXjDc8ls-59" edge="1">
          <mxGeometry width="50" height="50" relative="1" as="geometry">
            <mxPoint x="431.6486486486486" y="1521.129411764706" as="sourcePoint" />
            <mxPoint x="433.3243243243243" y="1296.3529411764707" as="targetPoint" />
            <Array as="points" />
          </mxGeometry>
        </mxCell>
        <mxCell id="VDvmv1JEjOlwoXjDc8ls-75" value="&lt;font&gt;M&lt;/font&gt;" style="edgeLabel;html=1;align=center;verticalAlign=middle;resizable=0;points=[];fontSize=22;" parent="VDvmv1JEjOlwoXjDc8ls-74" vertex="1" connectable="0">
          <mxGeometry x="0.4545" y="1" relative="1" as="geometry">
            <mxPoint as="offset" />
          </mxGeometry>
        </mxCell>
        <mxCell id="VDvmv1JEjOlwoXjDc8ls-76" value="" style="endArrow=none;html=1;rounded=0;exitX=1;exitY=0;exitDx=0;exitDy=0;entryX=0;entryY=0.5;entryDx=0;entryDy=0;fontSize=22;" parent="1" source="VDvmv1JEjOlwoXjDc8ls-59" target="VDvmv1JEjOlwoXjDc8ls-70" edge="1">
          <mxGeometry width="50" height="50" relative="1" as="geometry">
            <mxPoint x="352.8918918918919" y="1625.294117647059" as="sourcePoint" />
            <mxPoint x="436.67567567567556" y="1556.7647058823532" as="targetPoint" />
          </mxGeometry>
        </mxCell>
        <mxCell id="VDvmv1JEjOlwoXjDc8ls-77" value="&lt;font&gt;M&lt;/font&gt;" style="edgeLabel;html=1;align=center;verticalAlign=middle;resizable=0;points=[];fontSize=22;" parent="VDvmv1JEjOlwoXjDc8ls-76" vertex="1" connectable="0">
          <mxGeometry x="-0.4337" y="-1" relative="1" as="geometry">
            <mxPoint as="offset" />
          </mxGeometry>
        </mxCell>
        <mxCell id="VDvmv1JEjOlwoXjDc8ls-78" value="" style="endArrow=none;html=1;rounded=0;entryX=0;entryY=1;entryDx=0;entryDy=0;exitX=1;exitY=0.5;exitDx=0;exitDy=0;fontSize=22;" parent="1" source="VDvmv1JEjOlwoXjDc8ls-70" target="VDvmv1JEjOlwoXjDc8ls-19" edge="1">
          <mxGeometry width="50" height="50" relative="1" as="geometry">
            <mxPoint x="1023.162162162162" y="1611.5882352941178" as="sourcePoint" />
            <mxPoint x="956.135135135135" y="1666.4117647058824" as="targetPoint" />
          </mxGeometry>
        </mxCell>
        <mxCell id="VDvmv1JEjOlwoXjDc8ls-79" value="&lt;font&gt;1&lt;/font&gt;" style="edgeLabel;html=1;align=center;verticalAlign=middle;resizable=0;points=[];fontSize=22;" parent="VDvmv1JEjOlwoXjDc8ls-78" vertex="1" connectable="0">
          <mxGeometry x="0.6951" y="-3" relative="1" as="geometry">
            <mxPoint y="-1" as="offset" />
          </mxGeometry>
        </mxCell>
        <mxCell id="VDvmv1JEjOlwoXjDc8ls-80" value="Notifications" style="rounded=0;whiteSpace=wrap;html=1;fontSize=22;" parent="1" vertex="1">
          <mxGeometry x="1023.162162162162" y="2036.4705882352944" width="201.08108108108104" height="82.23529411764707" as="geometry" />
        </mxCell>
        <mxCell id="VDvmv1JEjOlwoXjDc8ls-81" value="Receiver_ID&lt;div&gt;(FK)&lt;/div&gt;" style="ellipse;whiteSpace=wrap;html=1;fontSize=22;" parent="1" vertex="1">
          <mxGeometry x="771.8105405405405" y="2080.0035294117647" width="150.8108108108108" height="82.23529411764707" as="geometry" />
        </mxCell>
        <mxCell id="VDvmv1JEjOlwoXjDc8ls-82" value="User_ID (FK)" style="ellipse;whiteSpace=wrap;html=1;fontSize=22;" parent="1" vertex="1">
          <mxGeometry x="1257.7567567567567" y="2228.3529411764707" width="150.8108108108108" height="82.23529411764707" as="geometry" />
        </mxCell>
        <mxCell id="VDvmv1JEjOlwoXjDc8ls-83" value="Action_ID (FK)" style="ellipse;whiteSpace=wrap;html=1;fontSize=22;" parent="1" vertex="1">
          <mxGeometry x="909.1913513513512" y="2242.054705882353" width="150.8108108108108" height="82.23529411764707" as="geometry" />
        </mxCell>
        <mxCell id="VDvmv1JEjOlwoXjDc8ls-84" value="Type" style="ellipse;whiteSpace=wrap;html=1;fontSize=22;" parent="1" vertex="1">
          <mxGeometry x="1073.4324324324323" y="2242.0588235294117" width="150.8108108108108" height="82.23529411764707" as="geometry" />
        </mxCell>
        <mxCell id="VDvmv1JEjOlwoXjDc8ls-85" value="Created_at" style="ellipse;whiteSpace=wrap;html=1;fontSize=22;" parent="1" vertex="1">
          <mxGeometry x="1375.0575675675675" y="1934.763529411765" width="150.8108108108108" height="82.23529411764707" as="geometry" />
        </mxCell>
        <mxCell id="VDvmv1JEjOlwoXjDc8ls-86" value="Message" style="ellipse;whiteSpace=wrap;html=1;fontSize=22;" parent="1" vertex="1">
          <mxGeometry x="1358.2972972972973" y="2146.117647058824" width="150.8108108108108" height="82.23529411764707" as="geometry" />
        </mxCell>
        <mxCell id="VDvmv1JEjOlwoXjDc8ls-87" value="&lt;u&gt;Notification_ID&lt;/u&gt;" style="ellipse;whiteSpace=wrap;html=1;fontSize=22;" parent="1" vertex="1">
          <mxGeometry x="791.9208108108108" y="1980.0005882352943" width="150.8108108108108" height="82.23529411764707" as="geometry" />
        </mxCell>
        <mxCell id="VDvmv1JEjOlwoXjDc8ls-88" value="Is_Read" style="ellipse;whiteSpace=wrap;html=1;fontSize=22;" parent="1" vertex="1">
          <mxGeometry x="1341.5405405405404" y="2036.4705882352944" width="150.8108108108108" height="82.23529411764707" as="geometry" />
        </mxCell>
        <mxCell id="VDvmv1JEjOlwoXjDc8ls-89" value="" style="endArrow=none;html=1;rounded=0;entryX=0.861;entryY=1.001;entryDx=0;entryDy=0;entryPerimeter=0;fontSize=22;" parent="1" target="VDvmv1JEjOlwoXjDc8ls-80" edge="1">
          <mxGeometry width="50" height="50" relative="1" as="geometry">
            <mxPoint x="1341.5405405405404" y="2228.3529411764707" as="sourcePoint" />
            <mxPoint x="1073.4324324324323" y="1995.352941176471" as="targetPoint" />
          </mxGeometry>
        </mxCell>
        <mxCell id="VDvmv1JEjOlwoXjDc8ls-90" value="" style="endArrow=none;html=1;rounded=0;exitX=1;exitY=0;exitDx=0;exitDy=0;entryX=0;entryY=1;entryDx=0;entryDy=0;fontSize=22;" parent="1" source="VDvmv1JEjOlwoXjDc8ls-81" target="VDvmv1JEjOlwoXjDc8ls-80" edge="1">
          <mxGeometry width="50" height="50" relative="1" as="geometry">
            <mxPoint x="833.8108108108108" y="1974.794117647059" as="sourcePoint" />
            <mxPoint x="1023.162162162162" y="2050.1764705882356" as="targetPoint" />
          </mxGeometry>
        </mxCell>
        <mxCell id="VDvmv1JEjOlwoXjDc8ls-91" value="" style="endArrow=none;html=1;rounded=0;exitX=1;exitY=0.5;exitDx=0;exitDy=0;entryX=0;entryY=0.25;entryDx=0;entryDy=0;fontSize=22;" parent="1" source="VDvmv1JEjOlwoXjDc8ls-87" target="VDvmv1JEjOlwoXjDc8ls-80" edge="1">
          <mxGeometry width="50" height="50" relative="1" as="geometry">
            <mxPoint x="850.5675675675675" y="1988.5000000000002" as="sourcePoint" />
            <mxPoint x="1049.972972972973" y="2074.8470588235296" as="targetPoint" />
          </mxGeometry>
        </mxCell>
        <mxCell id="VDvmv1JEjOlwoXjDc8ls-92" value="" style="endArrow=none;html=1;rounded=0;exitX=0.5;exitY=0;exitDx=0;exitDy=0;entryX=0.382;entryY=1.016;entryDx=0;entryDy=0;entryPerimeter=0;fontSize=22;" parent="1" source="VDvmv1JEjOlwoXjDc8ls-84" target="VDvmv1JEjOlwoXjDc8ls-80" edge="1">
          <mxGeometry width="50" height="50" relative="1" as="geometry">
            <mxPoint x="867.3243243243242" y="2002.2058823529412" as="sourcePoint" />
            <mxPoint x="1098.5675675675675" y="2132.4117647058824" as="targetPoint" />
          </mxGeometry>
        </mxCell>
        <mxCell id="VDvmv1JEjOlwoXjDc8ls-93" value="" style="endArrow=none;html=1;rounded=0;entryX=0.195;entryY=0.991;entryDx=0;entryDy=0;entryPerimeter=0;fontSize=22;" parent="1" source="VDvmv1JEjOlwoXjDc8ls-83" target="VDvmv1JEjOlwoXjDc8ls-80" edge="1">
          <mxGeometry width="50" height="50" relative="1" as="geometry">
            <mxPoint x="1123.7027027027025" y="1981.6470588235297" as="sourcePoint" />
            <mxPoint x="1123.7027027027025" y="2050.1764705882356" as="targetPoint" />
          </mxGeometry>
        </mxCell>
        <mxCell id="VDvmv1JEjOlwoXjDc8ls-94" value="" style="endArrow=none;html=1;rounded=0;exitX=0.052;exitY=0.732;exitDx=0;exitDy=0;entryX=1;entryY=0;entryDx=0;entryDy=0;exitPerimeter=0;fontSize=22;" parent="1" source="VDvmv1JEjOlwoXjDc8ls-85" target="VDvmv1JEjOlwoXjDc8ls-80" edge="1">
          <mxGeometry width="50" height="50" relative="1" as="geometry">
            <mxPoint x="1140.4594594594594" y="1995.352941176471" as="sourcePoint" />
            <mxPoint x="1140.4594594594594" y="2063.8823529411766" as="targetPoint" />
          </mxGeometry>
        </mxCell>
        <mxCell id="VDvmv1JEjOlwoXjDc8ls-95" value="" style="endArrow=none;html=1;rounded=0;exitX=0;exitY=0.5;exitDx=0;exitDy=0;entryX=1;entryY=0.25;entryDx=0;entryDy=0;fontSize=22;" parent="1" source="VDvmv1JEjOlwoXjDc8ls-88" target="VDvmv1JEjOlwoXjDc8ls-80" edge="1">
          <mxGeometry width="50" height="50" relative="1" as="geometry">
            <mxPoint x="1157.216216216216" y="2009.058823529412" as="sourcePoint" />
            <mxPoint x="1157.216216216216" y="2077.5882352941176" as="targetPoint" />
          </mxGeometry>
        </mxCell>
        <mxCell id="VDvmv1JEjOlwoXjDc8ls-96" value="" style="endArrow=none;html=1;rounded=0;exitX=1;exitY=0.907;exitDx=0;exitDy=0;entryX=0;entryY=0.5;entryDx=0;entryDy=0;exitPerimeter=0;fontSize=22;" parent="1" source="VDvmv1JEjOlwoXjDc8ls-80" target="VDvmv1JEjOlwoXjDc8ls-86" edge="1">
          <mxGeometry width="50" height="50" relative="1" as="geometry">
            <mxPoint x="1173.972972972973" y="2022.7647058823532" as="sourcePoint" />
            <mxPoint x="1173.972972972973" y="2091.2941176470595" as="targetPoint" />
          </mxGeometry>
        </mxCell>
        <mxCell id="VDvmv1JEjOlwoXjDc8ls-97" value="Send&lt;div&gt;or&lt;br&gt;&lt;div&gt;Recive&lt;/div&gt;&lt;/div&gt;" style="rhombus;whiteSpace=wrap;html=1;fontSize=22;" parent="1" vertex="1">
          <mxGeometry x="1000" y="1469.53" width="147.49" height="140.47" as="geometry" />
        </mxCell>
        <mxCell id="VDvmv1JEjOlwoXjDc8ls-98" value="" style="endArrow=none;html=1;rounded=0;entryX=0.311;entryY=1.006;entryDx=0;entryDy=0;exitX=0.5;exitY=0;exitDx=0;exitDy=0;entryPerimeter=0;fontSize=22;" parent="1" source="VDvmv1JEjOlwoXjDc8ls-97" target="VDvmv1JEjOlwoXjDc8ls-19" edge="1">
          <mxGeometry width="50" height="50" relative="1" as="geometry">
            <mxPoint x="1123.7027027027025" y="1433.4117647058824" as="sourcePoint" />
            <mxPoint x="1207.4864864864865" y="1364.8823529411766" as="targetPoint" />
            <Array as="points" />
          </mxGeometry>
        </mxCell>
        <mxCell id="VDvmv1JEjOlwoXjDc8ls-99" value="&lt;font&gt;1&lt;/font&gt;" style="edgeLabel;html=1;align=center;verticalAlign=middle;resizable=0;points=[];fontSize=22;" parent="VDvmv1JEjOlwoXjDc8ls-98" vertex="1" connectable="0">
          <mxGeometry x="0.5644" relative="1" as="geometry">
            <mxPoint as="offset" />
          </mxGeometry>
        </mxCell>
        <mxCell id="VDvmv1JEjOlwoXjDc8ls-100" value="" style="endArrow=none;html=1;rounded=0;entryX=0.5;entryY=1;entryDx=0;entryDy=0;fontSize=22;" parent="1" target="VDvmv1JEjOlwoXjDc8ls-97" edge="1">
          <mxGeometry width="50" height="50" relative="1" as="geometry">
            <mxPoint x="1140.4594594594594" y="2036.4705882352944" as="sourcePoint" />
            <mxPoint x="1170.6216216216214" y="1052.3882352941177" as="targetPoint" />
          </mxGeometry>
        </mxCell>
        <mxCell id="VDvmv1JEjOlwoXjDc8ls-101" value="&lt;font&gt;M&lt;/font&gt;" style="edgeLabel;html=1;align=center;verticalAlign=middle;resizable=0;points=[];fontSize=22;" parent="VDvmv1JEjOlwoXjDc8ls-100" vertex="1" connectable="0">
          <mxGeometry x="-0.7" y="1" relative="1" as="geometry">
            <mxPoint as="offset" />
          </mxGeometry>
        </mxCell>
        <mxCell id="VDvmv1JEjOlwoXjDc8ls-102" value="Triggers" style="rhombus;whiteSpace=wrap;html=1;fontSize=22;" parent="1" vertex="1">
          <mxGeometry x="704.7837837837837" y="1844.5882352941178" width="134.05405405405403" height="109.64705882352942" as="geometry" />
        </mxCell>
        <mxCell id="VDvmv1JEjOlwoXjDc8ls-103" value="" style="endArrow=none;html=1;rounded=0;exitX=1;exitY=1;exitDx=0;exitDy=0;entryX=0;entryY=0.5;entryDx=0;entryDy=0;fontSize=22;" parent="1" source="VDvmv1JEjOlwoXjDc8ls-59" target="VDvmv1JEjOlwoXjDc8ls-102" edge="1">
          <mxGeometry width="50" height="50" relative="1" as="geometry">
            <mxPoint x="654.5135135135134" y="1830.8823529411766" as="sourcePoint" />
            <mxPoint x="738.2972972972972" y="1762.3529411764707" as="targetPoint" />
          </mxGeometry>
        </mxCell>
        <mxCell id="VDvmv1JEjOlwoXjDc8ls-104" value="&lt;font&gt;1&lt;/font&gt;" style="edgeLabel;html=1;align=center;verticalAlign=middle;resizable=0;points=[];fontSize=22;" parent="VDvmv1JEjOlwoXjDc8ls-103" vertex="1" connectable="0">
          <mxGeometry x="-0.7285" y="-3" relative="1" as="geometry">
            <mxPoint as="offset" />
          </mxGeometry>
        </mxCell>
        <mxCell id="VDvmv1JEjOlwoXjDc8ls-105" value="" style="endArrow=none;html=1;rounded=0;exitX=1;exitY=0.5;exitDx=0;exitDy=0;entryX=0;entryY=0;entryDx=0;entryDy=0;fontSize=22;" parent="1" source="VDvmv1JEjOlwoXjDc8ls-102" target="VDvmv1JEjOlwoXjDc8ls-80" edge="1">
          <mxGeometry width="50" height="50" relative="1" as="geometry">
            <mxPoint x="537.2162162162161" y="1858.294117647059" as="sourcePoint" />
            <mxPoint x="721.5405405405404" y="1913.1176470588236" as="targetPoint" />
          </mxGeometry>
        </mxCell>
        <mxCell id="VDvmv1JEjOlwoXjDc8ls-106" value="&lt;font&gt;1&lt;/font&gt;" style="edgeLabel;html=1;align=center;verticalAlign=middle;resizable=0;points=[];fontSize=22;" parent="VDvmv1JEjOlwoXjDc8ls-105" vertex="1" connectable="0">
          <mxGeometry x="0.731" y="3" relative="1" as="geometry">
            <mxPoint as="offset" />
          </mxGeometry>
        </mxCell>
        <mxCell id="VDvmv1JEjOlwoXjDc8ls-107" value="Conversations" style="rounded=0;whiteSpace=wrap;html=1;fontSize=22;" parent="1" vertex="1">
          <mxGeometry x="1870.8105405405404" y="926.2894117647061" width="201.08108108108104" height="82.23529411764707" as="geometry" />
        </mxCell>
        <mxCell id="VDvmv1JEjOlwoXjDc8ls-108" value="User1_id" style="ellipse;whiteSpace=wrap;html=1;fontSize=22;" parent="1" vertex="1">
          <mxGeometry x="1937.8375675675672" y="1090.76" width="150.8108108108108" height="82.23529411764707" as="geometry" />
        </mxCell>
        <mxCell id="VDvmv1JEjOlwoXjDc8ls-109" value="Conversation&lt;div&gt;_ID&lt;/div&gt;" style="ellipse;whiteSpace=wrap;html=1;fontSize=22;" parent="1" vertex="1">
          <mxGeometry x="1719.9997297297296" y="1090.76" width="150.8108108108108" height="82.23529411764707" as="geometry" />
        </mxCell>
        <mxCell id="VDvmv1JEjOlwoXjDc8ls-110" value="created_at" style="ellipse;whiteSpace=wrap;html=1;fontSize=22;" parent="1" vertex="1">
          <mxGeometry x="2239.4591891891887" y="871.4658823529412" width="150.8108108108108" height="82.23529411764707" as="geometry" />
        </mxCell>
        <mxCell id="VDvmv1JEjOlwoXjDc8ls-111" value="related_request&lt;div&gt;_id&lt;/div&gt;" style="ellipse;whiteSpace=wrap;html=1;fontSize=22;" parent="1" vertex="1">
          <mxGeometry x="2234.4091891891885" y="989.9970588235295" width="150.8108108108108" height="82.23529411764707" as="geometry" />
        </mxCell>
        <mxCell id="VDvmv1JEjOlwoXjDc8ls-112" value="User2_id" style="ellipse;whiteSpace=wrap;html=1;fontSize=22;" parent="1" vertex="1">
          <mxGeometry x="2122.1618918918916" y="1090.76" width="150.8108108108108" height="82.23529411764707" as="geometry" />
        </mxCell>
        <mxCell id="VDvmv1JEjOlwoXjDc8ls-113" style="edgeStyle=orthogonalEdgeStyle;rounded=0;orthogonalLoop=1;jettySize=auto;html=1;exitX=0.5;exitY=1;exitDx=0;exitDy=0;fontSize=22;" parent="1" source="VDvmv1JEjOlwoXjDc8ls-110" target="VDvmv1JEjOlwoXjDc8ls-110" edge="1">
          <mxGeometry relative="1" as="geometry" />
        </mxCell>
        <mxCell id="VDvmv1JEjOlwoXjDc8ls-114" value="" style="endArrow=none;html=1;rounded=0;entryX=0.601;entryY=0.036;entryDx=0;entryDy=0;entryPerimeter=0;exitX=0;exitY=1;exitDx=0;exitDy=0;fontSize=22;" parent="1" source="VDvmv1JEjOlwoXjDc8ls-107" target="VDvmv1JEjOlwoXjDc8ls-109" edge="1">
          <mxGeometry width="50" height="50" relative="1" as="geometry">
            <mxPoint x="1921.0808108108106" y="967.4070588235295" as="sourcePoint" />
            <mxPoint x="2004.8645945945946" y="898.8776470588236" as="targetPoint" />
          </mxGeometry>
        </mxCell>
        <mxCell id="VDvmv1JEjOlwoXjDc8ls-115" value="" style="endArrow=none;html=1;rounded=0;exitX=0.5;exitY=0;exitDx=0;exitDy=0;entryX=0.694;entryY=0.994;entryDx=0;entryDy=0;entryPerimeter=0;fontSize=22;" parent="1" source="VDvmv1JEjOlwoXjDc8ls-108" target="VDvmv1JEjOlwoXjDc8ls-107" edge="1">
          <mxGeometry width="50" height="50" relative="1" as="geometry">
            <mxPoint x="1921.0808108108106" y="1035.9364705882354" as="sourcePoint" />
            <mxPoint x="2004.8645945945946" y="967.4070588235295" as="targetPoint" />
          </mxGeometry>
        </mxCell>
        <mxCell id="VDvmv1JEjOlwoXjDc8ls-116" value="" style="endArrow=none;html=1;rounded=0;exitX=1;exitY=1;exitDx=0;exitDy=0;fontSize=22;" parent="1" source="VDvmv1JEjOlwoXjDc8ls-107" target="VDvmv1JEjOlwoXjDc8ls-112" edge="1">
          <mxGeometry width="50" height="50" relative="1" as="geometry">
            <mxPoint x="2055.1348648648645" y="1063.3482352941178" as="sourcePoint" />
            <mxPoint x="2138.9186486486483" y="994.8188235294119" as="targetPoint" />
          </mxGeometry>
        </mxCell>
        <mxCell id="VDvmv1JEjOlwoXjDc8ls-117" value="" style="endArrow=none;html=1;rounded=0;exitX=1.002;exitY=0.734;exitDx=0;exitDy=0;exitPerimeter=0;entryX=0;entryY=0.5;entryDx=0;entryDy=0;fontSize=22;" parent="1" source="VDvmv1JEjOlwoXjDc8ls-107" target="VDvmv1JEjOlwoXjDc8ls-111" edge="1">
          <mxGeometry width="50" height="50" relative="1" as="geometry">
            <mxPoint x="2205.9456756756754" y="994.8188235294119" as="sourcePoint" />
            <mxPoint x="2289.729459459459" y="926.2894117647061" as="targetPoint" />
          </mxGeometry>
        </mxCell>
        <mxCell id="VDvmv1JEjOlwoXjDc8ls-118" value="" style="endArrow=none;html=1;rounded=0;exitX=0.995;exitY=0.178;exitDx=0;exitDy=0;exitPerimeter=0;entryX=0;entryY=1;entryDx=0;entryDy=0;fontSize=22;" parent="1" source="VDvmv1JEjOlwoXjDc8ls-107" target="VDvmv1JEjOlwoXjDc8ls-110" edge="1">
          <mxGeometry width="50" height="50" relative="1" as="geometry">
            <mxPoint x="2189.1889189189187" y="981.1129411764707" as="sourcePoint" />
            <mxPoint x="2272.9727027027025" y="912.5835294117649" as="targetPoint" />
          </mxGeometry>
        </mxCell>
        <mxCell id="VDvmv1JEjOlwoXjDc8ls-119" value="Send&lt;div&gt;or&lt;br&gt;&lt;div&gt;Recive&lt;/div&gt;&lt;/div&gt;" style="rhombus;whiteSpace=wrap;html=1;fontSize=22;" parent="1" vertex="1">
          <mxGeometry x="1430" y="1130" width="160.89" height="139.59" as="geometry" />
        </mxCell>
        <mxCell id="VDvmv1JEjOlwoXjDc8ls-120" value="" style="endArrow=none;html=1;rounded=0;exitX=0.75;exitY=1;exitDx=0;exitDy=0;entryX=0;entryY=0.5;entryDx=0;entryDy=0;fontSize=22;" parent="1" source="VDvmv1JEjOlwoXjDc8ls-19" target="VDvmv1JEjOlwoXjDc8ls-119" edge="1">
          <mxGeometry width="50" height="50" relative="1" as="geometry">
            <mxPoint x="1576.135135135135" y="1268.9411764705885" as="sourcePoint" />
            <mxPoint x="1659.9189189189187" y="1200.4117647058824" as="targetPoint" />
          </mxGeometry>
        </mxCell>
        <mxCell id="VDvmv1JEjOlwoXjDc8ls-121" value="&lt;font&gt;1&lt;/font&gt;" style="edgeLabel;html=1;align=center;verticalAlign=middle;resizable=0;points=[];fontSize=22;" parent="VDvmv1JEjOlwoXjDc8ls-120" vertex="1" connectable="0">
          <mxGeometry x="-0.6724" y="-3" relative="1" as="geometry">
            <mxPoint as="offset" />
          </mxGeometry>
        </mxCell>
        <mxCell id="VDvmv1JEjOlwoXjDc8ls-122" value="" style="endArrow=none;html=1;rounded=0;entryX=0;entryY=0.5;entryDx=0;entryDy=0;exitX=1;exitY=0.5;exitDx=0;exitDy=0;fontSize=22;" parent="1" source="VDvmv1JEjOlwoXjDc8ls-119" target="VDvmv1JEjOlwoXjDc8ls-107" edge="1">
          <mxGeometry width="50" height="50" relative="1" as="geometry">
            <mxPoint x="1592.8918918918916" y="1419.7058823529412" as="sourcePoint" />
            <mxPoint x="1676.6756756756756" y="1351.1764705882354" as="targetPoint" />
          </mxGeometry>
        </mxCell>
        <mxCell id="VDvmv1JEjOlwoXjDc8ls-123" value="&lt;font&gt;M&lt;/font&gt;" style="edgeLabel;html=1;align=center;verticalAlign=middle;resizable=0;points=[];fontSize=22;" parent="VDvmv1JEjOlwoXjDc8ls-122" vertex="1" connectable="0">
          <mxGeometry x="0.6691" y="-7" relative="1" as="geometry">
            <mxPoint x="1" as="offset" />
          </mxGeometry>
        </mxCell>
        <mxCell id="VDvmv1JEjOlwoXjDc8ls-124" value="Courses" style="rounded=0;whiteSpace=wrap;html=1;fontSize=22;" parent="1" vertex="1">
          <mxGeometry x="1576.135135135135" y="597.3529411764706" width="201.08108108108104" height="82.23529411764707" as="geometry" />
        </mxCell>
        <mxCell id="VDvmv1JEjOlwoXjDc8ls-125" value="DEP_ID&lt;div&gt;(FK)&lt;/div&gt;" style="ellipse;whiteSpace=wrap;html=1;fontSize=22;" parent="1" vertex="1">
          <mxGeometry x="1626.4054054054052" y="761.8235294117649" width="150.8108108108108" height="82.23529411764707" as="geometry" />
        </mxCell>
        <mxCell id="VDvmv1JEjOlwoXjDc8ls-126" value="Courses_ID" style="ellipse;whiteSpace=wrap;html=1;fontSize=22;" parent="1" vertex="1">
          <mxGeometry x="1408.5675675675675" y="761.8235294117649" width="150.8108108108108" height="82.23529411764707" as="geometry" />
        </mxCell>
        <mxCell id="VDvmv1JEjOlwoXjDc8ls-127" value="&lt;font&gt;Course_&lt;/font&gt;&lt;div&gt;&lt;font&gt;description&lt;/font&gt;&lt;/div&gt;" style="ellipse;whiteSpace=wrap;html=1;fontSize=22;" parent="1" vertex="1">
          <mxGeometry x="1928.0270270270266" y="542.529411764706" width="150.8108108108108" height="82.23529411764707" as="geometry" />
        </mxCell>
        <mxCell id="VDvmv1JEjOlwoXjDc8ls-128" value="Course_Link" style="ellipse;whiteSpace=wrap;html=1;fontSize=22;" parent="1" vertex="1">
          <mxGeometry x="1928.0270270270266" y="638.4705882352943" width="150.8108108108108" height="82.23529411764707" as="geometry" />
        </mxCell>
        <mxCell id="VDvmv1JEjOlwoXjDc8ls-129" value="Course_Name" style="ellipse;whiteSpace=wrap;html=1;fontSize=22;" parent="1" vertex="1">
          <mxGeometry x="1810.7297297297296" y="761.8235294117649" width="150.8108108108108" height="82.23529411764707" as="geometry" />
        </mxCell>
        <mxCell id="VDvmv1JEjOlwoXjDc8ls-130" style="edgeStyle=orthogonalEdgeStyle;rounded=0;orthogonalLoop=1;jettySize=auto;html=1;exitX=0.5;exitY=1;exitDx=0;exitDy=0;fontSize=22;" parent="1" source="VDvmv1JEjOlwoXjDc8ls-127" target="VDvmv1JEjOlwoXjDc8ls-127" edge="1">
          <mxGeometry relative="1" as="geometry" />
        </mxCell>
        <mxCell id="VDvmv1JEjOlwoXjDc8ls-131" value="" style="endArrow=none;html=1;rounded=0;entryX=0.601;entryY=0.036;entryDx=0;entryDy=0;entryPerimeter=0;exitX=0;exitY=1;exitDx=0;exitDy=0;fontSize=22;" parent="1" source="VDvmv1JEjOlwoXjDc8ls-124" target="VDvmv1JEjOlwoXjDc8ls-126" edge="1">
          <mxGeometry width="50" height="50" relative="1" as="geometry">
            <mxPoint x="1609.6486486486483" y="638.4705882352943" as="sourcePoint" />
            <mxPoint x="1693.4324324324323" y="569.9411764705883" as="targetPoint" />
          </mxGeometry>
        </mxCell>
        <mxCell id="VDvmv1JEjOlwoXjDc8ls-132" value="" style="endArrow=none;html=1;rounded=0;exitX=0.5;exitY=0;exitDx=0;exitDy=0;entryX=0.694;entryY=0.994;entryDx=0;entryDy=0;entryPerimeter=0;fontSize=22;" parent="1" source="VDvmv1JEjOlwoXjDc8ls-125" target="VDvmv1JEjOlwoXjDc8ls-124" edge="1">
          <mxGeometry width="50" height="50" relative="1" as="geometry">
            <mxPoint x="1609.6486486486483" y="707" as="sourcePoint" />
            <mxPoint x="1693.4324324324323" y="638.4705882352943" as="targetPoint" />
          </mxGeometry>
        </mxCell>
        <mxCell id="VDvmv1JEjOlwoXjDc8ls-133" value="" style="endArrow=none;html=1;rounded=0;exitX=1;exitY=1;exitDx=0;exitDy=0;fontSize=22;" parent="1" source="VDvmv1JEjOlwoXjDc8ls-124" target="VDvmv1JEjOlwoXjDc8ls-129" edge="1">
          <mxGeometry width="50" height="50" relative="1" as="geometry">
            <mxPoint x="1743.7027027027023" y="734.4117647058824" as="sourcePoint" />
            <mxPoint x="1827.4864864864862" y="665.8823529411766" as="targetPoint" />
          </mxGeometry>
        </mxCell>
        <mxCell id="VDvmv1JEjOlwoXjDc8ls-134" value="" style="endArrow=none;html=1;rounded=0;exitX=1.002;exitY=0.734;exitDx=0;exitDy=0;exitPerimeter=0;entryX=0;entryY=0.5;entryDx=0;entryDy=0;fontSize=22;" parent="1" source="VDvmv1JEjOlwoXjDc8ls-124" target="VDvmv1JEjOlwoXjDc8ls-128" edge="1">
          <mxGeometry width="50" height="50" relative="1" as="geometry">
            <mxPoint x="1894.5135135135133" y="665.8823529411766" as="sourcePoint" />
            <mxPoint x="1978.297297297297" y="597.3529411764706" as="targetPoint" />
          </mxGeometry>
        </mxCell>
        <mxCell id="VDvmv1JEjOlwoXjDc8ls-135" value="" style="endArrow=none;html=1;rounded=0;exitX=0.995;exitY=0.178;exitDx=0;exitDy=0;exitPerimeter=0;entryX=0;entryY=1;entryDx=0;entryDy=0;fontSize=22;" parent="1" source="VDvmv1JEjOlwoXjDc8ls-124" target="VDvmv1JEjOlwoXjDc8ls-127" edge="1">
          <mxGeometry width="50" height="50" relative="1" as="geometry">
            <mxPoint x="1877.7567567567567" y="652.1764705882354" as="sourcePoint" />
            <mxPoint x="1961.5405405405404" y="583.6470588235294" as="targetPoint" />
          </mxGeometry>
        </mxCell>
        <mxCell id="VDvmv1JEjOlwoXjDc8ls-136" value="Offers" style="rhombus;whiteSpace=wrap;html=1;fontSize=22;" parent="1" vertex="1">
          <mxGeometry x="1316.4054054054052" y="542.529411764706" width="134.05405405405403" height="109.64705882352942" as="geometry" />
        </mxCell>
        <mxCell id="VDvmv1JEjOlwoXjDc8ls-137" value="" style="endArrow=none;html=1;rounded=0;entryX=1;entryY=1;entryDx=0;entryDy=0;exitX=0;exitY=0.5;exitDx=0;exitDy=0;fontSize=22;" parent="1" source="VDvmv1JEjOlwoXjDc8ls-136" target="VDvmv1JEjOlwoXjDc8ls-2" edge="1">
          <mxGeometry width="50" height="50" relative="1" as="geometry">
            <mxPoint x="1324.7837837837835" y="569.9411764705883" as="sourcePoint" />
            <mxPoint x="1408.5675675675675" y="501.41176470588243" as="targetPoint" />
          </mxGeometry>
        </mxCell>
        <mxCell id="VDvmv1JEjOlwoXjDc8ls-138" value="&lt;font&gt;1&lt;/font&gt;" style="edgeLabel;html=1;align=center;verticalAlign=middle;resizable=0;points=[];fontSize=22;" parent="VDvmv1JEjOlwoXjDc8ls-137" vertex="1" connectable="0">
          <mxGeometry x="0.5376" relative="1" as="geometry">
            <mxPoint as="offset" />
          </mxGeometry>
        </mxCell>
        <mxCell id="VDvmv1JEjOlwoXjDc8ls-139" value="" style="endArrow=none;html=1;rounded=0;exitX=1;exitY=0.5;exitDx=0;exitDy=0;fontSize=22;" parent="1" source="VDvmv1JEjOlwoXjDc8ls-136" edge="1">
          <mxGeometry width="50" height="50" relative="1" as="geometry">
            <mxPoint x="1324.7837837837835" y="569.9411764705883" as="sourcePoint" />
            <mxPoint x="1576.135135135135" y="638.4705882352943" as="targetPoint" />
          </mxGeometry>
        </mxCell>
        <mxCell id="VDvmv1JEjOlwoXjDc8ls-140" value="&lt;font&gt;M&lt;/font&gt;" style="edgeLabel;html=1;align=center;verticalAlign=middle;resizable=0;points=[];fontSize=22;" parent="VDvmv1JEjOlwoXjDc8ls-139" vertex="1" connectable="0">
          <mxGeometry x="0.4713" y="2" relative="1" as="geometry">
            <mxPoint as="offset" />
          </mxGeometry>
        </mxCell>
        <mxCell id="VDvmv1JEjOlwoXjDc8ls-141" value="Books" style="rounded=0;whiteSpace=wrap;html=1;fontSize=22;" parent="1" vertex="1">
          <mxGeometry x="1659.9189189189187" y="268.4117647058824" width="201.08108108108104" height="82.23529411764707" as="geometry" />
        </mxCell>
        <mxCell id="VDvmv1JEjOlwoXjDc8ls-142" value="Year" style="ellipse;whiteSpace=wrap;html=1;fontSize=22;" parent="1" vertex="1">
          <mxGeometry x="1743.7027027027023" y="432.88235294117646" width="150.8108108108108" height="82.23529411764707" as="geometry" />
        </mxCell>
        <mxCell id="VDvmv1JEjOlwoXjDc8ls-143" value="&lt;font&gt;Book_Material&lt;/font&gt;" style="ellipse;whiteSpace=wrap;html=1;fontSize=22;" parent="1" vertex="1">
          <mxGeometry x="2045.324324324324" y="213.58823529411765" width="150.8108108108108" height="82.23529411764707" as="geometry" />
        </mxCell>
        <mxCell id="VDvmv1JEjOlwoXjDc8ls-144" value="Book_Name" style="ellipse;whiteSpace=wrap;html=1;fontSize=22;" parent="1" vertex="1">
          <mxGeometry x="2045.324324324324" y="309.5294117647059" width="150.8108108108108" height="82.23529411764707" as="geometry" />
        </mxCell>
        <mxCell id="VDvmv1JEjOlwoXjDc8ls-145" value="DEP_ID&lt;div&gt;(FK)&lt;/div&gt;" style="ellipse;whiteSpace=wrap;html=1;fontSize=22;" parent="1" vertex="1">
          <mxGeometry x="1928.0270270270266" y="432.88235294117646" width="150.8108108108108" height="82.23529411764707" as="geometry" />
        </mxCell>
        <mxCell id="VDvmv1JEjOlwoXjDc8ls-146" style="edgeStyle=orthogonalEdgeStyle;rounded=0;orthogonalLoop=1;jettySize=auto;html=1;exitX=0.5;exitY=1;exitDx=0;exitDy=0;fontSize=22;" parent="1" source="VDvmv1JEjOlwoXjDc8ls-143" target="VDvmv1JEjOlwoXjDc8ls-143" edge="1">
          <mxGeometry relative="1" as="geometry" />
        </mxCell>
        <mxCell id="VDvmv1JEjOlwoXjDc8ls-147" value="" style="endArrow=none;html=1;rounded=0;exitX=0.5;exitY=0;exitDx=0;exitDy=0;entryX=0.694;entryY=0.994;entryDx=0;entryDy=0;entryPerimeter=0;fontSize=22;" parent="1" source="VDvmv1JEjOlwoXjDc8ls-142" target="VDvmv1JEjOlwoXjDc8ls-141" edge="1">
          <mxGeometry width="50" height="50" relative="1" as="geometry">
            <mxPoint x="1726.9459459459456" y="378.05882352941177" as="sourcePoint" />
            <mxPoint x="1810.7297297297296" y="309.5294117647059" as="targetPoint" />
          </mxGeometry>
        </mxCell>
        <mxCell id="VDvmv1JEjOlwoXjDc8ls-148" value="" style="endArrow=none;html=1;rounded=0;exitX=1;exitY=1;exitDx=0;exitDy=0;fontSize=22;" parent="1" source="VDvmv1JEjOlwoXjDc8ls-141" target="VDvmv1JEjOlwoXjDc8ls-145" edge="1">
          <mxGeometry width="50" height="50" relative="1" as="geometry">
            <mxPoint x="1861" y="405.47058823529414" as="sourcePoint" />
            <mxPoint x="1944.7837837837835" y="336.9411764705883" as="targetPoint" />
          </mxGeometry>
        </mxCell>
        <mxCell id="VDvmv1JEjOlwoXjDc8ls-149" value="" style="endArrow=none;html=1;rounded=0;exitX=1.002;exitY=0.734;exitDx=0;exitDy=0;exitPerimeter=0;entryX=0;entryY=0.5;entryDx=0;entryDy=0;fontSize=22;" parent="1" source="VDvmv1JEjOlwoXjDc8ls-141" target="VDvmv1JEjOlwoXjDc8ls-144" edge="1">
          <mxGeometry width="50" height="50" relative="1" as="geometry">
            <mxPoint x="2011.8108108108106" y="336.9411764705883" as="sourcePoint" />
            <mxPoint x="2095.5945945945946" y="268.4117647058824" as="targetPoint" />
          </mxGeometry>
        </mxCell>
        <mxCell id="VDvmv1JEjOlwoXjDc8ls-150" value="" style="endArrow=none;html=1;rounded=0;exitX=0.995;exitY=0.178;exitDx=0;exitDy=0;exitPerimeter=0;entryX=0;entryY=1;entryDx=0;entryDy=0;fontSize=22;" parent="1" source="VDvmv1JEjOlwoXjDc8ls-141" target="VDvmv1JEjOlwoXjDc8ls-143" edge="1">
          <mxGeometry width="50" height="50" relative="1" as="geometry">
            <mxPoint x="1995.054054054054" y="323.23529411764713" as="sourcePoint" />
            <mxPoint x="2078.837837837838" y="254.70588235294122" as="targetPoint" />
          </mxGeometry>
        </mxCell>
        <mxCell id="VDvmv1JEjOlwoXjDc8ls-151" value="Has" style="rhombus;whiteSpace=wrap;html=1;fontSize=22;" parent="1" vertex="1">
          <mxGeometry x="1416.9459459459458" y="398.6176470588236" width="134.05405405405403" height="109.64705882352942" as="geometry" />
        </mxCell>
        <mxCell id="VDvmv1JEjOlwoXjDc8ls-152" value="" style="endArrow=none;html=1;rounded=0;exitX=1;exitY=0.5;exitDx=0;exitDy=0;fontSize=22;" parent="1" source="VDvmv1JEjOlwoXjDc8ls-151" edge="1">
          <mxGeometry width="50" height="50" relative="1" as="geometry">
            <mxPoint x="1509.108108108108" y="378.05882352941177" as="sourcePoint" />
            <mxPoint x="1659.9189189189187" y="350.64705882352945" as="targetPoint" />
          </mxGeometry>
        </mxCell>
        <mxCell id="VDvmv1JEjOlwoXjDc8ls-153" value="&lt;font&gt;M&lt;/font&gt;" style="edgeLabel;html=1;align=center;verticalAlign=middle;resizable=0;points=[];fontSize=22;" parent="VDvmv1JEjOlwoXjDc8ls-152" vertex="1" connectable="0">
          <mxGeometry x="0.6609" y="3" relative="1" as="geometry">
            <mxPoint x="1" as="offset" />
          </mxGeometry>
        </mxCell>
        <mxCell id="VDvmv1JEjOlwoXjDc8ls-154" value="" style="endArrow=none;html=1;rounded=0;exitX=1;exitY=0.5;exitDx=0;exitDy=0;entryX=0;entryY=0.5;entryDx=0;entryDy=0;fontSize=22;" parent="1" source="VDvmv1JEjOlwoXjDc8ls-2" target="VDvmv1JEjOlwoXjDc8ls-151" edge="1">
          <mxGeometry width="50" height="50" relative="1" as="geometry">
            <mxPoint x="1509.108108108108" y="378.05882352941177" as="sourcePoint" />
            <mxPoint x="1592.8918918918916" y="309.5294117647059" as="targetPoint" />
          </mxGeometry>
        </mxCell>
        <mxCell id="VDvmv1JEjOlwoXjDc8ls-155" value="&lt;font&gt;1&lt;/font&gt;" style="edgeLabel;html=1;align=center;verticalAlign=middle;resizable=0;points=[];fontSize=22;" parent="VDvmv1JEjOlwoXjDc8ls-154" vertex="1" connectable="0">
          <mxGeometry x="-0.7518" y="2" relative="1" as="geometry">
            <mxPoint x="1" as="offset" />
          </mxGeometry>
        </mxCell>
        <mxCell id="VDvmv1JEjOlwoXjDc8ls-156" value="Academic_Staff" style="rounded=0;whiteSpace=wrap;html=1;fontSize=22;" parent="1" vertex="1">
          <mxGeometry x="1006.4054054054053" y="117.64705882352942" width="201.08108108108104" height="82.23529411764707" as="geometry" />
        </mxCell>
        <mxCell id="VDvmv1JEjOlwoXjDc8ls-157" value="Name" style="ellipse;whiteSpace=wrap;html=1;fontSize=22;" parent="1" vertex="1">
          <mxGeometry x="838.8378378378378" y="8" width="150.8108108108108" height="82.23529411764707" as="geometry" />
        </mxCell>
        <mxCell id="VDvmv1JEjOlwoXjDc8ls-158" value="&lt;u&gt;Acadimic_ID&lt;/u&gt;" style="ellipse;whiteSpace=wrap;html=1;fontSize=22;" parent="1" vertex="1">
          <mxGeometry x="671.2702702702702" y="8" width="150.8108108108108" height="82.23529411764707" as="geometry" />
        </mxCell>
        <mxCell id="VDvmv1JEjOlwoXjDc8ls-159" value="E-mail" style="ellipse;whiteSpace=wrap;html=1;fontSize=22;" parent="1" vertex="1">
          <mxGeometry x="1207.4864864864865" y="8" width="150.8108108108108" height="82.23529411764707" as="geometry" />
        </mxCell>
        <mxCell id="VDvmv1JEjOlwoXjDc8ls-160" value="LinkedIn" style="ellipse;whiteSpace=wrap;html=1;fontSize=22;" parent="1" vertex="1">
          <mxGeometry x="1014.7837837837836" y="8" width="150.8108108108108" height="82.23529411764707" as="geometry" />
        </mxCell>
        <mxCell id="VDvmv1JEjOlwoXjDc8ls-161" value="Office_Location" style="ellipse;whiteSpace=wrap;html=1;fontSize=22;" parent="1" vertex="1">
          <mxGeometry x="1391.8108108108106" y="8" width="150.8108108108108" height="82.23529411764707" as="geometry" />
        </mxCell>
        <mxCell id="VDvmv1JEjOlwoXjDc8ls-162" value="Image" style="ellipse;whiteSpace=wrap;html=1;fontSize=22;" parent="1" vertex="1">
          <mxGeometry x="755.054054054054" y="117.64705882352942" width="150.8108108108108" height="82.23529411764707" as="geometry" />
        </mxCell>
        <mxCell id="VDvmv1JEjOlwoXjDc8ls-163" value="DEP_ID (FK)" style="ellipse;whiteSpace=wrap;html=1;fontSize=22;" parent="1" vertex="1">
          <mxGeometry x="1291.27027027027" y="117.64705882352942" width="150.8108108108108" height="82.23529411764707" as="geometry" />
        </mxCell>
        <mxCell id="VDvmv1JEjOlwoXjDc8ls-164" value="" style="endArrow=none;html=1;rounded=0;exitX=1;exitY=1;exitDx=0;exitDy=0;entryX=-0.003;entryY=0.166;entryDx=0;entryDy=0;entryPerimeter=0;fontSize=22;" parent="1" source="VDvmv1JEjOlwoXjDc8ls-158" target="VDvmv1JEjOlwoXjDc8ls-156" edge="1">
          <mxGeometry width="50" height="50" relative="1" as="geometry">
            <mxPoint x="972.8918918918918" y="145.05882352941177" as="sourcePoint" />
            <mxPoint x="1056.6756756756756" y="76.52941176470588" as="targetPoint" />
          </mxGeometry>
        </mxCell>
        <mxCell id="VDvmv1JEjOlwoXjDc8ls-165" value="" style="endArrow=none;html=1;rounded=0;exitX=0.5;exitY=1;exitDx=0;exitDy=0;entryX=0;entryY=0;entryDx=0;entryDy=0;fontSize=22;" parent="1" source="VDvmv1JEjOlwoXjDc8ls-157" target="VDvmv1JEjOlwoXjDc8ls-156" edge="1">
          <mxGeometry width="50" height="50" relative="1" as="geometry">
            <mxPoint x="817.054054054054" y="55.97058823529412" as="sourcePoint" />
            <mxPoint x="1006.4054054054053" y="131.3529411764706" as="targetPoint" />
          </mxGeometry>
        </mxCell>
        <mxCell id="VDvmv1JEjOlwoXjDc8ls-166" value="" style="endArrow=none;html=1;rounded=0;exitX=1;exitY=0.5;exitDx=0;exitDy=0;entryX=0;entryY=0.25;entryDx=0;entryDy=0;fontSize=22;" parent="1" source="VDvmv1JEjOlwoXjDc8ls-162" target="VDvmv1JEjOlwoXjDc8ls-156" edge="1">
          <mxGeometry width="50" height="50" relative="1" as="geometry">
            <mxPoint x="833.8108108108108" y="69.6764705882353" as="sourcePoint" />
            <mxPoint x="1033.216216216216" y="156.0235294117647" as="targetPoint" />
          </mxGeometry>
        </mxCell>
        <mxCell id="VDvmv1JEjOlwoXjDc8ls-167" value="" style="endArrow=none;html=1;rounded=0;exitX=0.5;exitY=1;exitDx=0;exitDy=0;entryX=0.419;entryY=0.001;entryDx=0;entryDy=0;entryPerimeter=0;fontSize=22;" parent="1" source="VDvmv1JEjOlwoXjDc8ls-160" target="VDvmv1JEjOlwoXjDc8ls-156" edge="1">
          <mxGeometry width="50" height="50" relative="1" as="geometry">
            <mxPoint x="850.5675675675675" y="83.38235294117648" as="sourcePoint" />
            <mxPoint x="1049.972972972973" y="169.7294117647059" as="targetPoint" />
          </mxGeometry>
        </mxCell>
        <mxCell id="VDvmv1JEjOlwoXjDc8ls-168" value="" style="endArrow=none;html=1;rounded=0;entryX=0.858;entryY=-0.003;entryDx=0;entryDy=0;entryPerimeter=0;fontSize=22;" parent="1" source="VDvmv1JEjOlwoXjDc8ls-159" target="VDvmv1JEjOlwoXjDc8ls-156" edge="1">
          <mxGeometry width="50" height="50" relative="1" as="geometry">
            <mxPoint x="1106.9459459459458" y="62.82352941176471" as="sourcePoint" />
            <mxPoint x="1106.9459459459458" y="131.3529411764706" as="targetPoint" />
          </mxGeometry>
        </mxCell>
        <mxCell id="VDvmv1JEjOlwoXjDc8ls-169" value="" style="endArrow=none;html=1;rounded=0;exitX=0.052;exitY=0.732;exitDx=0;exitDy=0;entryX=1;entryY=0;entryDx=0;entryDy=0;exitPerimeter=0;fontSize=22;" parent="1" source="VDvmv1JEjOlwoXjDc8ls-161" target="VDvmv1JEjOlwoXjDc8ls-156" edge="1">
          <mxGeometry width="50" height="50" relative="1" as="geometry">
            <mxPoint x="1123.7027027027025" y="76.52941176470588" as="sourcePoint" />
            <mxPoint x="1123.7027027027025" y="145.05882352941177" as="targetPoint" />
          </mxGeometry>
        </mxCell>
        <mxCell id="VDvmv1JEjOlwoXjDc8ls-170" value="" style="endArrow=none;html=1;rounded=0;exitX=0;exitY=0.5;exitDx=0;exitDy=0;entryX=1;entryY=0.25;entryDx=0;entryDy=0;fontSize=22;" parent="1" source="VDvmv1JEjOlwoXjDc8ls-163" target="VDvmv1JEjOlwoXjDc8ls-156" edge="1">
          <mxGeometry width="50" height="50" relative="1" as="geometry">
            <mxPoint x="1140.4594594594594" y="90.23529411764707" as="sourcePoint" />
            <mxPoint x="1140.4594594594594" y="158.76470588235296" as="targetPoint" />
          </mxGeometry>
        </mxCell>
        <mxCell id="VDvmv1JEjOlwoXjDc8ls-171" value="Staffs" style="rhombus;whiteSpace=wrap;html=1;fontSize=22;" parent="1" vertex="1">
          <mxGeometry x="1048.2972972972973" y="254.70588235294122" width="134.05405405405403" height="109.64705882352942" as="geometry" />
        </mxCell>
        <mxCell id="VDvmv1JEjOlwoXjDc8ls-172" value="" style="endArrow=none;html=1;rounded=0;entryX=0.542;entryY=1;entryDx=0;entryDy=0;exitX=0.5;exitY=0;exitDx=0;exitDy=0;entryPerimeter=0;fontSize=22;" parent="1" source="VDvmv1JEjOlwoXjDc8ls-171" target="VDvmv1JEjOlwoXjDc8ls-156" edge="1">
          <mxGeometry width="50" height="50" relative="1" as="geometry">
            <mxPoint x="1224.2432432432431" y="350.64705882352945" as="sourcePoint" />
            <mxPoint x="1308.0270270270269" y="282.11764705882354" as="targetPoint" />
          </mxGeometry>
        </mxCell>
        <mxCell id="VDvmv1JEjOlwoXjDc8ls-173" value="&lt;font&gt;M&lt;/font&gt;" style="edgeLabel;html=1;align=center;verticalAlign=middle;resizable=0;points=[];fontSize=22;" parent="VDvmv1JEjOlwoXjDc8ls-172" vertex="1" connectable="0">
          <mxGeometry x="0.3441" relative="1" as="geometry">
            <mxPoint as="offset" />
          </mxGeometry>
        </mxCell>
        <mxCell id="VDvmv1JEjOlwoXjDc8ls-174" value="" style="endArrow=none;html=1;rounded=0;entryX=0.5;entryY=1;entryDx=0;entryDy=0;exitX=0.55;exitY=0;exitDx=0;exitDy=0;exitPerimeter=0;fontSize=22;" parent="1" source="VDvmv1JEjOlwoXjDc8ls-2" target="VDvmv1JEjOlwoXjDc8ls-171" edge="1">
          <mxGeometry width="50" height="50" relative="1" as="geometry">
            <mxPoint x="1090.1891891891892" y="432.88235294117646" as="sourcePoint" />
            <mxPoint x="1173.972972972973" y="364.3529411764706" as="targetPoint" />
          </mxGeometry>
        </mxCell>
        <mxCell id="VDvmv1JEjOlwoXjDc8ls-175" value="&lt;font&gt;1&lt;/font&gt;" style="edgeLabel;html=1;align=center;verticalAlign=middle;resizable=0;points=[];fontSize=22;" parent="VDvmv1JEjOlwoXjDc8ls-174" vertex="1" connectable="0">
          <mxGeometry x="-0.416" y="1" relative="1" as="geometry">
            <mxPoint as="offset" />
          </mxGeometry>
        </mxCell>
        <mxCell id="VDvmv1JEjOlwoXjDc8ls-176" value="Sender_ID&lt;div&gt;(FK)&lt;/div&gt;" style="ellipse;whiteSpace=wrap;html=1;fontSize=22;" parent="1" vertex="1">
          <mxGeometry x="1231.0005405405404" y="1878.003529411765" width="150.8108108108108" height="82.23529411764707" as="geometry" />
        </mxCell>
        <mxCell id="VDvmv1JEjOlwoXjDc8ls-177" value="" style="endArrow=none;html=1;rounded=0;exitX=0.821;exitY=-0.001;exitDx=0;exitDy=0;entryX=0.267;entryY=0.944;entryDx=0;entryDy=0;fontSize=22;entryPerimeter=0;exitPerimeter=0;" parent="1" source="VDvmv1JEjOlwoXjDc8ls-80" target="VDvmv1JEjOlwoXjDc8ls-176" edge="1">
          <mxGeometry width="50" height="50" relative="1" as="geometry">
            <mxPoint x="923" y="2182" as="sourcePoint" />
            <mxPoint x="1033" y="2129" as="targetPoint" />
          </mxGeometry>
        </mxCell>
        <mxCell id="-sd8Pc7eI4pg9dsde85n-2" value="is_blocked" style="ellipse;whiteSpace=wrap;html=1;fontSize=22;" vertex="1" parent="1">
          <mxGeometry x="1120.0005405405404" y="761.8229411764706" width="150.8108108108108" height="82.23529411764707" as="geometry" />
        </mxCell>
        <mxCell id="-sd8Pc7eI4pg9dsde85n-4" value="" style="endArrow=none;html=1;rounded=0;exitX=0.737;exitY=-0.008;exitDx=0;exitDy=0;exitPerimeter=0;entryX=0.428;entryY=1.024;entryDx=0;entryDy=0;entryPerimeter=0;" edge="1" parent="1" source="VDvmv1JEjOlwoXjDc8ls-19" target="-sd8Pc7eI4pg9dsde85n-2">
          <mxGeometry width="50" height="50" relative="1" as="geometry">
            <mxPoint x="1160" y="930" as="sourcePoint" />
            <mxPoint x="1210" y="880" as="targetPoint" />
          </mxGeometry>
        </mxCell>
        <mxCell id="-sd8Pc7eI4pg9dsde85n-6" value="Messages" style="rounded=0;whiteSpace=wrap;html=1;fontSize=22;" vertex="1" parent="1">
          <mxGeometry x="1711.6305405405406" y="1518.5894117647063" width="201.08108108108104" height="82.23529411764707" as="geometry" />
        </mxCell>
        <mxCell id="-sd8Pc7eI4pg9dsde85n-7" value="Sender_ID" style="ellipse;whiteSpace=wrap;html=1;fontSize=22;" vertex="1" parent="1">
          <mxGeometry x="1850.007567567567" y="1671.1200000000001" width="150.8108108108108" height="82.23529411764707" as="geometry" />
        </mxCell>
        <mxCell id="-sd8Pc7eI4pg9dsde85n-8" value="Message_id" style="ellipse;whiteSpace=wrap;html=1;fontSize=22;" vertex="1" parent="1">
          <mxGeometry x="1489.1897297297294" y="1610.0000000000002" width="150.8108108108108" height="82.23529411764707" as="geometry" />
        </mxCell>
        <mxCell id="-sd8Pc7eI4pg9dsde85n-9" value="created_at" style="ellipse;whiteSpace=wrap;html=1;fontSize=22;" vertex="1" parent="1">
          <mxGeometry x="2080.2791891891884" y="1463.7658823529414" width="150.8108108108108" height="82.23529411764707" as="geometry" />
        </mxCell>
        <mxCell id="-sd8Pc7eI4pg9dsde85n-10" value="content" style="ellipse;whiteSpace=wrap;html=1;fontSize=22;" vertex="1" parent="1">
          <mxGeometry x="2080.2791891891884" y="1559.7070588235297" width="150.8108108108108" height="82.23529411764707" as="geometry" />
        </mxCell>
        <mxCell id="-sd8Pc7eI4pg9dsde85n-11" value="Conversation&lt;div&gt;_ID&lt;/div&gt;" style="ellipse;whiteSpace=wrap;html=1;fontSize=22;" vertex="1" parent="1">
          <mxGeometry x="2000.8218918918915" y="1640.2400000000002" width="150.8108108108108" height="82.23529411764707" as="geometry" />
        </mxCell>
        <mxCell id="-sd8Pc7eI4pg9dsde85n-13" value="" style="endArrow=none;html=1;rounded=0;entryX=0.601;entryY=0.036;entryDx=0;entryDy=0;entryPerimeter=0;exitX=0;exitY=1;exitDx=0;exitDy=0;fontSize=22;" edge="1" source="-sd8Pc7eI4pg9dsde85n-6" target="-sd8Pc7eI4pg9dsde85n-8" parent="1">
          <mxGeometry width="50" height="50" relative="1" as="geometry">
            <mxPoint x="1761.9008108108105" y="1559.7070588235297" as="sourcePoint" />
            <mxPoint x="1845.6845945945947" y="1491.1776470588238" as="targetPoint" />
          </mxGeometry>
        </mxCell>
        <mxCell id="-sd8Pc7eI4pg9dsde85n-14" value="" style="endArrow=none;html=1;rounded=0;exitX=0.5;exitY=0;exitDx=0;exitDy=0;entryX=0.694;entryY=0.994;entryDx=0;entryDy=0;entryPerimeter=0;fontSize=22;" edge="1" source="-sd8Pc7eI4pg9dsde85n-7" target="-sd8Pc7eI4pg9dsde85n-6" parent="1">
          <mxGeometry width="50" height="50" relative="1" as="geometry">
            <mxPoint x="1761.9008108108105" y="1628.2364705882355" as="sourcePoint" />
            <mxPoint x="1845.6845945945947" y="1559.7070588235297" as="targetPoint" />
          </mxGeometry>
        </mxCell>
        <mxCell id="-sd8Pc7eI4pg9dsde85n-15" value="" style="endArrow=none;html=1;rounded=0;exitX=1;exitY=1;exitDx=0;exitDy=0;fontSize=22;" edge="1" source="-sd8Pc7eI4pg9dsde85n-6" target="-sd8Pc7eI4pg9dsde85n-11" parent="1">
          <mxGeometry width="50" height="50" relative="1" as="geometry">
            <mxPoint x="1895.9548648648642" y="1655.648235294118" as="sourcePoint" />
            <mxPoint x="1979.738648648648" y="1587.118823529412" as="targetPoint" />
          </mxGeometry>
        </mxCell>
        <mxCell id="-sd8Pc7eI4pg9dsde85n-16" value="" style="endArrow=none;html=1;rounded=0;exitX=1.002;exitY=0.734;exitDx=0;exitDy=0;exitPerimeter=0;entryX=0;entryY=0.5;entryDx=0;entryDy=0;fontSize=22;" edge="1" source="-sd8Pc7eI4pg9dsde85n-6" target="-sd8Pc7eI4pg9dsde85n-10" parent="1">
          <mxGeometry width="50" height="50" relative="1" as="geometry">
            <mxPoint x="2046.765675675675" y="1587.118823529412" as="sourcePoint" />
            <mxPoint x="2130.549459459459" y="1518.5894117647063" as="targetPoint" />
          </mxGeometry>
        </mxCell>
        <mxCell id="-sd8Pc7eI4pg9dsde85n-17" value="" style="endArrow=none;html=1;rounded=0;exitX=0.995;exitY=0.178;exitDx=0;exitDy=0;exitPerimeter=0;entryX=0;entryY=1;entryDx=0;entryDy=0;fontSize=22;" edge="1" source="-sd8Pc7eI4pg9dsde85n-6" target="-sd8Pc7eI4pg9dsde85n-9" parent="1">
          <mxGeometry width="50" height="50" relative="1" as="geometry">
            <mxPoint x="2030.0089189189184" y="1573.412941176471" as="sourcePoint" />
            <mxPoint x="2113.792702702702" y="1504.883529411765" as="targetPoint" />
          </mxGeometry>
        </mxCell>
        <mxCell id="-sd8Pc7eI4pg9dsde85n-19" value="edited_at" style="ellipse;whiteSpace=wrap;html=1;fontSize=22;" vertex="1" parent="1">
          <mxGeometry x="1626.4097297297296" y="1660.0000000000002" width="150.8108108108108" height="82.23529411764707" as="geometry" />
        </mxCell>
        <mxCell id="-sd8Pc7eI4pg9dsde85n-20" value="" style="endArrow=none;html=1;rounded=0;exitX=0.314;exitY=1.024;exitDx=0;exitDy=0;fontSize=22;exitPerimeter=0;" edge="1" parent="1" source="-sd8Pc7eI4pg9dsde85n-6" target="-sd8Pc7eI4pg9dsde85n-19">
          <mxGeometry width="50" height="50" relative="1" as="geometry">
            <mxPoint x="1721.8200000000002" y="1611.1200000000001" as="sourcePoint" />
            <mxPoint x="1626.8200000000002" y="1682.1200000000001" as="targetPoint" />
          </mxGeometry>
        </mxCell>
        <mxCell id="-sd8Pc7eI4pg9dsde85n-21" value="is_deleted" style="ellipse;whiteSpace=wrap;html=1;fontSize=22;" vertex="1" parent="1">
          <mxGeometry x="2019.9991891891887" y="1381.5258823529414" width="150.8108108108108" height="82.23529411764707" as="geometry" />
        </mxCell>
        <mxCell id="-sd8Pc7eI4pg9dsde85n-22" value="" style="endArrow=none;html=1;rounded=0;exitX=1;exitY=0;exitDx=0;exitDy=0;entryX=0;entryY=1;entryDx=0;entryDy=0;fontSize=22;" edge="1" parent="1" source="-sd8Pc7eI4pg9dsde85n-6" target="-sd8Pc7eI4pg9dsde85n-21">
          <mxGeometry width="50" height="50" relative="1" as="geometry">
            <mxPoint x="1921.87" y="1543.65" as="sourcePoint" />
            <mxPoint x="2111.87" y="1543.65" as="targetPoint" />
          </mxGeometry>
        </mxCell>
        <mxCell id="-sd8Pc7eI4pg9dsde85n-23" value="deleted_at" style="ellipse;whiteSpace=wrap;html=1;fontSize=22;" vertex="1" parent="1">
          <mxGeometry x="1870.8091891891886" y="1343.6458823529413" width="150.8108108108108" height="82.23529411764707" as="geometry" />
        </mxCell>
        <mxCell id="-sd8Pc7eI4pg9dsde85n-25" value="" style="endArrow=none;html=1;rounded=0;entryX=0.5;entryY=1;entryDx=0;entryDy=0;fontSize=22;" edge="1" parent="1" source="-sd8Pc7eI4pg9dsde85n-6" target="-sd8Pc7eI4pg9dsde85n-23">
          <mxGeometry width="50" height="50" relative="1" as="geometry">
            <mxPoint x="1922.87" y="1528.65" as="sourcePoint" />
            <mxPoint x="2037.87" y="1461.65" as="targetPoint" />
          </mxGeometry>
        </mxCell>
        <mxCell id="-sd8Pc7eI4pg9dsde85n-27" value="deleted_by" style="ellipse;whiteSpace=wrap;html=1;fontSize=22;" vertex="1" parent="1">
          <mxGeometry x="1649.9991891891887" y="1343.6458823529413" width="150.8108108108108" height="82.23529411764707" as="geometry" />
        </mxCell>
        <mxCell id="-sd8Pc7eI4pg9dsde85n-28" value="" style="endArrow=none;html=1;rounded=0;entryX=0.5;entryY=1;entryDx=0;entryDy=0;fontSize=22;exitX=0.5;exitY=0;exitDx=0;exitDy=0;" edge="1" parent="1" source="-sd8Pc7eI4pg9dsde85n-6" target="-sd8Pc7eI4pg9dsde85n-27">
          <mxGeometry width="50" height="50" relative="1" as="geometry">
            <mxPoint x="1859.87" y="1528.65" as="sourcePoint" />
            <mxPoint x="1945.87" y="1435.65" as="targetPoint" />
          </mxGeometry>
        </mxCell>
        <mxCell id="-sd8Pc7eI4pg9dsde85n-29" value="Message Edits&amp;nbsp;" style="rounded=0;whiteSpace=wrap;html=1;fontSize=22;" vertex="1" parent="1">
          <mxGeometry x="1816.3505405405404" y="1993.589411764706" width="201.08108108108104" height="82.23529411764707" as="geometry" />
        </mxCell>
        <mxCell id="-sd8Pc7eI4pg9dsde85n-30" value="message_ID" style="ellipse;whiteSpace=wrap;html=1;fontSize=22;" vertex="1" parent="1">
          <mxGeometry x="1954.7275675675671" y="2146.12" width="150.8108108108108" height="82.23529411764707" as="geometry" />
        </mxCell>
        <mxCell id="-sd8Pc7eI4pg9dsde85n-31" value="Message_edit&lt;div&gt;_id&lt;/div&gt;" style="ellipse;whiteSpace=wrap;html=1;fontSize=22;" vertex="1" parent="1">
          <mxGeometry x="1630.5897297297295" y="2144.35" width="150.8108108108108" height="82.23529411764707" as="geometry" />
        </mxCell>
        <mxCell id="-sd8Pc7eI4pg9dsde85n-33" value="edited_at" style="ellipse;whiteSpace=wrap;html=1;fontSize=22;" vertex="1" parent="1">
          <mxGeometry x="2196.1391891891885" y="2039.9970588235296" width="150.8108108108108" height="82.23529411764707" as="geometry" />
        </mxCell>
        <mxCell id="-sd8Pc7eI4pg9dsde85n-34" value="old_content" style="ellipse;whiteSpace=wrap;html=1;fontSize=22;" vertex="1" parent="1">
          <mxGeometry x="2105.5418918918917" y="2115.2400000000002" width="150.8108108108108" height="82.23529411764707" as="geometry" />
        </mxCell>
        <mxCell id="-sd8Pc7eI4pg9dsde85n-35" style="edgeStyle=orthogonalEdgeStyle;rounded=0;orthogonalLoop=1;jettySize=auto;html=1;exitX=0.5;exitY=1;exitDx=0;exitDy=0;fontSize=22;" edge="1" parent="1">
          <mxGeometry relative="1" as="geometry">
            <mxPoint x="2260.4045945945936" y="2021.0011764705885" as="sourcePoint" />
            <mxPoint x="2260.4045945945936" y="2021.0011764705885" as="targetPoint" />
          </mxGeometry>
        </mxCell>
        <mxCell id="-sd8Pc7eI4pg9dsde85n-36" value="" style="endArrow=none;html=1;rounded=0;entryX=0.601;entryY=0.036;entryDx=0;entryDy=0;entryPerimeter=0;exitX=0;exitY=1;exitDx=0;exitDy=0;fontSize=22;" edge="1" source="-sd8Pc7eI4pg9dsde85n-29" target="-sd8Pc7eI4pg9dsde85n-31" parent="1">
          <mxGeometry width="50" height="50" relative="1" as="geometry">
            <mxPoint x="1866.6208108108106" y="2034.7070588235295" as="sourcePoint" />
            <mxPoint x="1950.4045945945945" y="1966.1776470588236" as="targetPoint" />
          </mxGeometry>
        </mxCell>
        <mxCell id="-sd8Pc7eI4pg9dsde85n-37" value="" style="endArrow=none;html=1;rounded=0;exitX=0.5;exitY=0;exitDx=0;exitDy=0;entryX=0.694;entryY=0.994;entryDx=0;entryDy=0;entryPerimeter=0;fontSize=22;" edge="1" source="-sd8Pc7eI4pg9dsde85n-30" target="-sd8Pc7eI4pg9dsde85n-29" parent="1">
          <mxGeometry width="50" height="50" relative="1" as="geometry">
            <mxPoint x="1866.6208108108106" y="2103.2364705882355" as="sourcePoint" />
            <mxPoint x="1950.4045945945945" y="2034.7070588235295" as="targetPoint" />
          </mxGeometry>
        </mxCell>
        <mxCell id="-sd8Pc7eI4pg9dsde85n-38" value="" style="endArrow=none;html=1;rounded=0;exitX=1;exitY=1;exitDx=0;exitDy=0;fontSize=22;" edge="1" source="-sd8Pc7eI4pg9dsde85n-29" target="-sd8Pc7eI4pg9dsde85n-34" parent="1">
          <mxGeometry width="50" height="50" relative="1" as="geometry">
            <mxPoint x="2000.6748648648643" y="2130.648235294118" as="sourcePoint" />
            <mxPoint x="2084.4586486486482" y="2062.118823529412" as="targetPoint" />
          </mxGeometry>
        </mxCell>
        <mxCell id="-sd8Pc7eI4pg9dsde85n-39" value="" style="endArrow=none;html=1;rounded=0;exitX=1.002;exitY=0.734;exitDx=0;exitDy=0;exitPerimeter=0;entryX=0.007;entryY=0.438;entryDx=0;entryDy=0;fontSize=22;entryPerimeter=0;" edge="1" source="-sd8Pc7eI4pg9dsde85n-29" target="-sd8Pc7eI4pg9dsde85n-33" parent="1">
          <mxGeometry width="50" height="50" relative="1" as="geometry">
            <mxPoint x="2151.4856756756753" y="2062.118823529412" as="sourcePoint" />
            <mxPoint x="2184.999189189186" y="2075.824705882353" as="targetPoint" />
          </mxGeometry>
        </mxCell>
        <mxCell id="-sd8Pc7eI4pg9dsde85n-41" value="editor_ID" style="ellipse;whiteSpace=wrap;html=1;fontSize=22;" vertex="1" parent="1">
          <mxGeometry x="1795.5397297297295" y="2144.35" width="150.8108108108108" height="82.23529411764707" as="geometry" />
        </mxCell>
        <mxCell id="-sd8Pc7eI4pg9dsde85n-42" value="" style="endArrow=none;html=1;rounded=0;exitX=0.314;exitY=1.024;exitDx=0;exitDy=0;fontSize=22;exitPerimeter=0;" edge="1" source="-sd8Pc7eI4pg9dsde85n-29" target="-sd8Pc7eI4pg9dsde85n-41" parent="1">
          <mxGeometry width="50" height="50" relative="1" as="geometry">
            <mxPoint x="1826.54" y="2086.12" as="sourcePoint" />
            <mxPoint x="1731.54" y="2157.12" as="targetPoint" />
          </mxGeometry>
        </mxCell>
        <mxCell id="-sd8Pc7eI4pg9dsde85n-50" value="is_ deleted" style="ellipse;whiteSpace=wrap;html=1;fontSize=22;" vertex="1" parent="1">
          <mxGeometry x="771.8105405405405" y="2180.0035294117647" width="150.8108108108108" height="82.23529411764707" as="geometry" />
        </mxCell>
        <mxCell id="-sd8Pc7eI4pg9dsde85n-51" value="" style="endArrow=none;html=1;rounded=0;exitX=0.98;exitY=0.294;exitDx=0;exitDy=0;entryX=0.09;entryY=0.999;entryDx=0;entryDy=0;fontSize=22;exitPerimeter=0;entryPerimeter=0;" edge="1" parent="1" source="-sd8Pc7eI4pg9dsde85n-50" target="VDvmv1JEjOlwoXjDc8ls-80">
          <mxGeometry width="50" height="50" relative="1" as="geometry">
            <mxPoint x="911" y="2102" as="sourcePoint" />
            <mxPoint x="1033" y="2129" as="targetPoint" />
          </mxGeometry>
        </mxCell>
        <mxCell id="-sd8Pc7eI4pg9dsde85n-52" value="Description" style="ellipse;whiteSpace=wrap;html=1;fontSize=22;" vertex="1" parent="1">
          <mxGeometry x="746.6745945945945" y="419.17294117647066" width="201.08108108108104" height="82.23529411764707" as="geometry" />
        </mxCell>
        <mxCell id="-sd8Pc7eI4pg9dsde85n-53" value="" style="endArrow=none;html=1;rounded=0;exitX=0.884;exitY=0.839;exitDx=0;exitDy=0;entryX=0;entryY=0.25;entryDx=0;entryDy=0;fontSize=22;exitPerimeter=0;" edge="1" parent="1" source="-sd8Pc7eI4pg9dsde85n-52" target="VDvmv1JEjOlwoXjDc8ls-2">
          <mxGeometry width="50" height="50" relative="1" as="geometry">
            <mxPoint x="1011" y="443" as="sourcePoint" />
            <mxPoint x="1016" y="484" as="targetPoint" />
          </mxGeometry>
        </mxCell>
        <mxCell id="-sd8Pc7eI4pg9dsde85n-54" value="last_message&lt;div&gt;_at&lt;/div&gt;" style="ellipse;whiteSpace=wrap;html=1;fontSize=22;" vertex="1" parent="1">
          <mxGeometry x="2106.839189189189" y="779.9958823529412" width="150.8108108108108" height="82.23529411764707" as="geometry" />
        </mxCell>
        <mxCell id="-sd8Pc7eI4pg9dsde85n-55" value="" style="endArrow=none;html=1;rounded=0;exitX=0.947;exitY=0.004;exitDx=0;exitDy=0;exitPerimeter=0;entryX=0.371;entryY=0.995;entryDx=0;entryDy=0;fontSize=22;entryPerimeter=0;" edge="1" parent="1" source="VDvmv1JEjOlwoXjDc8ls-107" target="-sd8Pc7eI4pg9dsde85n-54">
          <mxGeometry width="50" height="50" relative="1" as="geometry">
            <mxPoint x="2081" y="951" as="sourcePoint" />
            <mxPoint x="2271" y="952" as="targetPoint" />
          </mxGeometry>
        </mxCell>
        <mxCell id="-sd8Pc7eI4pg9dsde85n-57" value="has" style="rhombus;whiteSpace=wrap;html=1;fontSize=22;rotation=0;" vertex="1" parent="1">
          <mxGeometry x="1800.81" y="1220" width="109.65" height="109.59" as="geometry" />
        </mxCell>
        <mxCell id="-sd8Pc7eI4pg9dsde85n-58" value="" style="endArrow=none;html=1;rounded=0;exitX=0.344;exitY=1.018;exitDx=0;exitDy=0;fontSize=22;exitPerimeter=0;entryX=0.5;entryY=0;entryDx=0;entryDy=0;" edge="1" parent="1" source="VDvmv1JEjOlwoXjDc8ls-107" target="-sd8Pc7eI4pg9dsde85n-57">
          <mxGeometry width="50" height="50" relative="1" as="geometry">
            <mxPoint x="1881" y="1019" as="sourcePoint" />
            <mxPoint x="1870" y="1220" as="targetPoint" />
          </mxGeometry>
        </mxCell>
        <mxCell id="-sd8Pc7eI4pg9dsde85n-60" value="&lt;font style=&quot;font-size: 22px;&quot;&gt;1&lt;/font&gt;" style="edgeLabel;html=1;align=center;verticalAlign=middle;resizable=0;points=[];" vertex="1" connectable="0" parent="-sd8Pc7eI4pg9dsde85n-58">
          <mxGeometry x="-0.5363" y="-2" relative="1" as="geometry">
            <mxPoint as="offset" />
          </mxGeometry>
        </mxCell>
        <mxCell id="-sd8Pc7eI4pg9dsde85n-59" value="" style="endArrow=none;html=1;rounded=0;exitX=0.5;exitY=1;exitDx=0;exitDy=0;fontSize=22;" edge="1" parent="1" source="-sd8Pc7eI4pg9dsde85n-57" target="-sd8Pc7eI4pg9dsde85n-6">
          <mxGeometry width="50" height="50" relative="1" as="geometry">
            <mxPoint x="1950" y="1020" as="sourcePoint" />
            <mxPoint x="1880" y="1230" as="targetPoint" />
          </mxGeometry>
        </mxCell>
        <mxCell id="-sd8Pc7eI4pg9dsde85n-61" value="&lt;font style=&quot;font-size: 22px;&quot;&gt;M&lt;/font&gt;" style="edgeLabel;html=1;align=center;verticalAlign=middle;resizable=0;points=[];" vertex="1" connectable="0" parent="-sd8Pc7eI4pg9dsde85n-59">
          <mxGeometry x="0.565" y="-1" relative="1" as="geometry">
            <mxPoint as="offset" />
          </mxGeometry>
        </mxCell>
        <mxCell id="-sd8Pc7eI4pg9dsde85n-62" value="has" style="rhombus;whiteSpace=wrap;html=1;fontSize=22;rotation=0;" vertex="1" parent="1">
          <mxGeometry x="1764.28" y="1748.68" width="109.65" height="109.59" as="geometry" />
        </mxCell>
        <mxCell id="-sd8Pc7eI4pg9dsde85n-63" value="" style="endArrow=none;html=1;rounded=0;exitX=0.5;exitY=1;exitDx=0;exitDy=0;fontSize=22;entryX=0.5;entryY=0;entryDx=0;entryDy=0;" edge="1" parent="1" source="-sd8Pc7eI4pg9dsde85n-6" target="-sd8Pc7eI4pg9dsde85n-62">
          <mxGeometry width="50" height="50" relative="1" as="geometry">
            <mxPoint x="1785" y="1613" as="sourcePoint" />
            <mxPoint x="1740" y="1673" as="targetPoint" />
          </mxGeometry>
        </mxCell>
        <mxCell id="-sd8Pc7eI4pg9dsde85n-65" value="&lt;font style=&quot;font-size: 22px;&quot;&gt;1&lt;/font&gt;" style="edgeLabel;html=1;align=center;verticalAlign=middle;resizable=0;points=[];" vertex="1" connectable="0" parent="-sd8Pc7eI4pg9dsde85n-63">
          <mxGeometry x="-0.5315" y="1" relative="1" as="geometry">
            <mxPoint x="-3" y="18" as="offset" />
          </mxGeometry>
        </mxCell>
        <mxCell id="-sd8Pc7eI4pg9dsde85n-64" value="" style="endArrow=none;html=1;rounded=0;exitX=0.5;exitY=1;exitDx=0;exitDy=0;fontSize=22;entryX=0.141;entryY=0.019;entryDx=0;entryDy=0;entryPerimeter=0;" edge="1" parent="1" source="-sd8Pc7eI4pg9dsde85n-62" target="-sd8Pc7eI4pg9dsde85n-29">
          <mxGeometry width="50" height="50" relative="1" as="geometry">
            <mxPoint x="1822" y="1611" as="sourcePoint" />
            <mxPoint x="1850" y="1814" as="targetPoint" />
          </mxGeometry>
        </mxCell>
        <mxCell id="-sd8Pc7eI4pg9dsde85n-66" value="&lt;font style=&quot;font-size: 22px;&quot;&gt;M&lt;/font&gt;" style="edgeLabel;html=1;align=center;verticalAlign=middle;resizable=0;points=[];" vertex="1" connectable="0" parent="-sd8Pc7eI4pg9dsde85n-64">
          <mxGeometry x="0.4291" y="1" relative="1" as="geometry">
            <mxPoint y="-5" as="offset" />
          </mxGeometry>
        </mxCell>
        <mxCell id="-sd8Pc7eI4pg9dsde85n-67" value="has" style="rhombus;whiteSpace=wrap;html=1;fontSize=22;" vertex="1" parent="1">
          <mxGeometry x="1168.92" y="1460.35" width="147.49" height="140.47" as="geometry" />
        </mxCell>
        <mxCell id="-sd8Pc7eI4pg9dsde85n-68" value="" style="endArrow=none;html=1;rounded=0;exitX=0.5;exitY=0;exitDx=0;exitDy=0;fontSize=22;entryX=0.396;entryY=0.988;entryDx=0;entryDy=0;entryPerimeter=0;" edge="1" parent="1" source="-sd8Pc7eI4pg9dsde85n-67" target="VDvmv1JEjOlwoXjDc8ls-19">
          <mxGeometry width="50" height="50" relative="1" as="geometry">
            <mxPoint x="1084" y="1480" as="sourcePoint" />
            <mxPoint x="1148" y="1035" as="targetPoint" />
            <Array as="points" />
          </mxGeometry>
        </mxCell>
        <mxCell id="-sd8Pc7eI4pg9dsde85n-69" value="&lt;font&gt;1&lt;/font&gt;" style="edgeLabel;html=1;align=center;verticalAlign=middle;resizable=0;points=[];fontSize=22;" vertex="1" connectable="0" parent="-sd8Pc7eI4pg9dsde85n-68">
          <mxGeometry x="0.5644" relative="1" as="geometry">
            <mxPoint as="offset" />
          </mxGeometry>
        </mxCell>
        <mxCell id="-sd8Pc7eI4pg9dsde85n-70" value="" style="endArrow=none;html=1;rounded=0;exitX=0.5;exitY=1;exitDx=0;exitDy=0;fontSize=22;entryX=0;entryY=0.5;entryDx=0;entryDy=0;" edge="1" parent="1" source="-sd8Pc7eI4pg9dsde85n-67" target="-sd8Pc7eI4pg9dsde85n-29">
          <mxGeometry width="50" height="50" relative="1" as="geometry">
            <mxPoint x="1829" y="1868" as="sourcePoint" />
            <mxPoint x="1855" y="2005" as="targetPoint" />
          </mxGeometry>
        </mxCell>
        <mxCell id="-sd8Pc7eI4pg9dsde85n-71" value="&lt;font style=&quot;font-size: 22px;&quot;&gt;M&lt;/font&gt;" style="edgeLabel;html=1;align=center;verticalAlign=middle;resizable=0;points=[];" vertex="1" connectable="0" parent="-sd8Pc7eI4pg9dsde85n-70">
          <mxGeometry x="0.4291" y="1" relative="1" as="geometry">
            <mxPoint y="-5" as="offset" />
          </mxGeometry>
        </mxCell>
        <mxCell id="-sd8Pc7eI4pg9dsde85n-72" value="has" style="rhombus;whiteSpace=wrap;html=1;fontSize=22;" vertex="1" parent="1">
          <mxGeometry x="1361.6200000000001" y="1352.4099999999999" width="147.49" height="140.47" as="geometry" />
        </mxCell>
        <mxCell id="-sd8Pc7eI4pg9dsde85n-73" value="" style="endArrow=none;html=1;rounded=0;exitX=0.5;exitY=0;exitDx=0;exitDy=0;fontSize=22;entryX=0.609;entryY=1.004;entryDx=0;entryDy=0;entryPerimeter=0;" edge="1" parent="1" source="-sd8Pc7eI4pg9dsde85n-72" target="VDvmv1JEjOlwoXjDc8ls-19">
          <mxGeometry width="50" height="50" relative="1" as="geometry">
            <mxPoint x="1253" y="1470" as="sourcePoint" />
            <mxPoint x="1113" y="1031" as="targetPoint" />
            <Array as="points" />
          </mxGeometry>
        </mxCell>
        <mxCell id="-sd8Pc7eI4pg9dsde85n-74" value="&lt;font&gt;1&lt;/font&gt;" style="edgeLabel;html=1;align=center;verticalAlign=middle;resizable=0;points=[];fontSize=22;" vertex="1" connectable="0" parent="-sd8Pc7eI4pg9dsde85n-73">
          <mxGeometry x="0.5644" relative="1" as="geometry">
            <mxPoint as="offset" />
          </mxGeometry>
        </mxCell>
        <mxCell id="-sd8Pc7eI4pg9dsde85n-75" value="" style="endArrow=none;html=1;rounded=0;exitX=0.5;exitY=1;exitDx=0;exitDy=0;fontSize=22;entryX=0;entryY=0;entryDx=0;entryDy=0;" edge="1" parent="1" source="-sd8Pc7eI4pg9dsde85n-72" target="-sd8Pc7eI4pg9dsde85n-6">
          <mxGeometry width="50" height="50" relative="1" as="geometry">
            <mxPoint x="1866" y="1340" as="sourcePoint" />
            <mxPoint x="1830" y="1529" as="targetPoint" />
          </mxGeometry>
        </mxCell>
        <mxCell id="-sd8Pc7eI4pg9dsde85n-76" value="&lt;font style=&quot;font-size: 22px;&quot;&gt;M&lt;/font&gt;" style="edgeLabel;html=1;align=center;verticalAlign=middle;resizable=0;points=[];" vertex="1" connectable="0" parent="-sd8Pc7eI4pg9dsde85n-75">
          <mxGeometry x="0.565" y="-1" relative="1" as="geometry">
            <mxPoint x="-25" y="-4" as="offset" />
          </mxGeometry>
        </mxCell>
      </root>
    </mxGraphModel>
  </diagram>
</mxfile>
